G04 #@! TF.GenerationSoftware,KiCad,Pcbnew,8.0.4-8.0.4-0~ubuntu24.04.1*
G04 #@! TF.CreationDate,2024-09-03T20:49:10+07:00*
G04 #@! TF.ProjectId,OpenDrone_FC_F405_HW,4f70656e-4472-46f6-9e65-5f46435f4634,rev?*
G04 #@! TF.SameCoordinates,Original*
G04 #@! TF.FileFunction,Soldermask,Bot*
G04 #@! TF.FilePolarity,Negative*
%FSLAX46Y46*%
G04 Gerber Fmt 4.6, Leading zero omitted, Abs format (unit mm)*
G04 Created by KiCad (PCBNEW 8.0.4-8.0.4-0~ubuntu24.04.1) date 2024-09-03 20:49:10*
%MOMM*%
%LPD*%
G01*
G04 APERTURE LIST*
G04 Aperture macros list*
%AMRoundRect*
0 Rectangle with rounded corners*
0 $1 Rounding radius*
0 $2 $3 $4 $5 $6 $7 $8 $9 X,Y pos of 4 corners*
0 Add a 4 corners polygon primitive as box body*
4,1,4,$2,$3,$4,$5,$6,$7,$8,$9,$2,$3,0*
0 Add four circle primitives for the rounded corners*
1,1,$1+$1,$2,$3*
1,1,$1+$1,$4,$5*
1,1,$1+$1,$6,$7*
1,1,$1+$1,$8,$9*
0 Add four rect primitives between the rounded corners*
20,1,$1+$1,$2,$3,$4,$5,0*
20,1,$1+$1,$4,$5,$6,$7,0*
20,1,$1+$1,$6,$7,$8,$9,0*
20,1,$1+$1,$8,$9,$2,$3,0*%
G04 Aperture macros list end*
%ADD10O,1.200000X1.200000*%
%ADD11RoundRect,0.225000X0.475000X-0.225000X0.475000X0.225000X-0.475000X0.225000X-0.475000X-0.225000X0*%
%ADD12O,1.400000X0.900000*%
%ADD13RoundRect,0.225000X-0.225000X-0.475000X0.225000X-0.475000X0.225000X0.475000X-0.225000X0.475000X0*%
%ADD14O,0.900000X1.400000*%
%ADD15O,1.350000X1.350000*%
%ADD16R,1.350000X1.350000*%
G04 APERTURE END LIST*
D10*
X164735000Y-67287500D03*
X162485000Y-67287500D03*
X134502500Y-71415000D03*
X134502500Y-69165000D03*
X134517500Y-95195000D03*
X134517500Y-97445000D03*
X164595000Y-99287500D03*
X162345000Y-99287500D03*
D11*
X136950000Y-78680000D03*
D12*
X136950000Y-77430000D03*
X136950000Y-76180000D03*
X136950000Y-74930000D03*
D13*
X154180000Y-69760000D03*
D14*
X155430000Y-69760000D03*
X156680000Y-69760000D03*
X157930000Y-69760000D03*
X159180000Y-69760000D03*
D15*
X163910000Y-74750000D03*
X163910000Y-76750000D03*
X163910000Y-78750000D03*
X163910000Y-80750000D03*
X163910000Y-82750000D03*
D10*
X136355000Y-67302500D03*
X138605000Y-67302500D03*
X166482500Y-71445000D03*
X166482500Y-69195000D03*
D15*
X161910000Y-74750000D03*
X161910000Y-76750000D03*
X161910000Y-78750000D03*
X161910000Y-80750000D03*
X161910000Y-82750000D03*
D11*
X136970000Y-91590000D03*
D12*
X136970000Y-90340000D03*
X136970000Y-89090000D03*
X136970000Y-87840000D03*
X136970000Y-86590000D03*
X136970000Y-85340000D03*
X136970000Y-84090000D03*
X136970000Y-82840000D03*
D16*
X159225000Y-96950000D03*
D15*
X159225000Y-98950000D03*
X157225000Y-96950000D03*
X157225000Y-98950000D03*
X155225000Y-96950000D03*
X155225000Y-98950000D03*
D10*
X166477500Y-95205000D03*
X166477500Y-97455000D03*
D15*
X165910000Y-74725000D03*
X165910000Y-76725000D03*
X165910000Y-78725000D03*
X165910000Y-80725000D03*
X165910000Y-82725000D03*
D10*
X136375000Y-99317500D03*
X138625000Y-99317500D03*
M02*
