G04 #@! TF.GenerationSoftware,KiCad,Pcbnew,8.0.4-8.0.4-0~ubuntu24.04.1*
G04 #@! TF.CreationDate,2024-09-03T20:49:09+07:00*
G04 #@! TF.ProjectId,OpenDrone_FC_F405_HW,4f70656e-4472-46f6-9e65-5f46435f4634,rev?*
G04 #@! TF.SameCoordinates,Original*
G04 #@! TF.FileFunction,Legend,Top*
G04 #@! TF.FilePolarity,Positive*
%FSLAX46Y46*%
G04 Gerber Fmt 4.6, Leading zero omitted, Abs format (unit mm)*
G04 Created by KiCad (PCBNEW 8.0.4-8.0.4-0~ubuntu24.04.1) date 2024-09-03 20:49:09*
%MOMM*%
%LPD*%
G01*
G04 APERTURE LIST*
G04 Aperture macros list*
%AMRoundRect*
0 Rectangle with rounded corners*
0 $1 Rounding radius*
0 $2 $3 $4 $5 $6 $7 $8 $9 X,Y pos of 4 corners*
0 Add a 4 corners polygon primitive as box body*
4,1,4,$2,$3,$4,$5,$6,$7,$8,$9,$2,$3,0*
0 Add four circle primitives for the rounded corners*
1,1,$1+$1,$2,$3*
1,1,$1+$1,$4,$5*
1,1,$1+$1,$6,$7*
1,1,$1+$1,$8,$9*
0 Add four rect primitives between the rounded corners*
20,1,$1+$1,$2,$3,$4,$5,0*
20,1,$1+$1,$4,$5,$6,$7,0*
20,1,$1+$1,$6,$7,$8,$9,0*
20,1,$1+$1,$8,$9,$2,$3,0*%
G04 Aperture macros list end*
%ADD10C,0.150000*%
%ADD11C,0.120000*%
%ADD12C,0.100000*%
%ADD13C,2.550000*%
%ADD14RoundRect,0.140000X0.170000X-0.140000X0.170000X0.140000X-0.170000X0.140000X-0.170000X-0.140000X0*%
%ADD15RoundRect,0.250000X1.100000X-0.325000X1.100000X0.325000X-1.100000X0.325000X-1.100000X-0.325000X0*%
%ADD16RoundRect,0.140000X-0.140000X-0.170000X0.140000X-0.170000X0.140000X0.170000X-0.140000X0.170000X0*%
%ADD17RoundRect,0.135000X-0.185000X0.135000X-0.185000X-0.135000X0.185000X-0.135000X0.185000X0.135000X0*%
%ADD18O,1.200000X1.200000*%
%ADD19RoundRect,0.135000X0.185000X-0.135000X0.185000X0.135000X-0.185000X0.135000X-0.185000X-0.135000X0*%
%ADD20RoundRect,0.140000X-0.170000X0.140000X-0.170000X-0.140000X0.170000X-0.140000X0.170000X0.140000X0*%
%ADD21RoundRect,0.062500X-0.350000X-0.062500X0.350000X-0.062500X0.350000X0.062500X-0.350000X0.062500X0*%
%ADD22RoundRect,0.062500X-0.062500X-0.350000X0.062500X-0.350000X0.062500X0.350000X-0.062500X0.350000X0*%
%ADD23RoundRect,0.075000X-0.700000X-0.075000X0.700000X-0.075000X0.700000X0.075000X-0.700000X0.075000X0*%
%ADD24RoundRect,0.075000X-0.075000X-0.700000X0.075000X-0.700000X0.075000X0.700000X-0.075000X0.700000X0*%
%ADD25RoundRect,0.147500X0.172500X-0.147500X0.172500X0.147500X-0.172500X0.147500X-0.172500X-0.147500X0*%
%ADD26RoundRect,0.250000X0.325000X1.100000X-0.325000X1.100000X-0.325000X-1.100000X0.325000X-1.100000X0*%
%ADD27RoundRect,0.140000X0.140000X0.170000X-0.140000X0.170000X-0.140000X-0.170000X0.140000X-0.170000X0*%
%ADD28RoundRect,0.135000X-0.135000X-0.185000X0.135000X-0.185000X0.135000X0.185000X-0.135000X0.185000X0*%
%ADD29RoundRect,0.062500X0.062500X-0.375000X0.062500X0.375000X-0.062500X0.375000X-0.062500X-0.375000X0*%
%ADD30RoundRect,0.062500X0.375000X-0.062500X0.375000X0.062500X-0.375000X0.062500X-0.375000X-0.062500X0*%
%ADD31R,2.150000X2.150000*%
%ADD32RoundRect,0.225000X0.475000X-0.225000X0.475000X0.225000X-0.475000X0.225000X-0.475000X-0.225000X0*%
%ADD33O,1.400000X0.900000*%
%ADD34RoundRect,0.225000X-0.225000X-0.475000X0.225000X-0.475000X0.225000X0.475000X-0.225000X0.475000X0*%
%ADD35O,0.900000X1.400000*%
%ADD36O,1.350000X1.350000*%
%ADD37R,1.200000X1.400000*%
%ADD38RoundRect,0.150000X0.150000X-0.825000X0.150000X0.825000X-0.150000X0.825000X-0.150000X-0.825000X0*%
%ADD39R,3.000000X2.290000*%
%ADD40RoundRect,0.250000X-0.650000X1.000000X-0.650000X-1.000000X0.650000X-1.000000X0.650000X1.000000X0*%
%ADD41R,4.500000X1.500000*%
%ADD42RoundRect,0.150000X-0.150000X0.825000X-0.150000X-0.825000X0.150000X-0.825000X0.150000X0.825000X0*%
%ADD43R,1.350000X1.350000*%
%ADD44RoundRect,0.135000X0.135000X0.185000X-0.135000X0.185000X-0.135000X-0.185000X0.135000X-0.185000X0*%
%ADD45RoundRect,0.250000X-0.325000X-1.100000X0.325000X-1.100000X0.325000X1.100000X-0.325000X1.100000X0*%
%ADD46RoundRect,0.250000X-1.000000X-0.650000X1.000000X-0.650000X1.000000X0.650000X-1.000000X0.650000X0*%
%ADD47R,0.350000X0.500000*%
G04 APERTURE END LIST*
D10*
X137146779Y-86988866D02*
X137908684Y-86988866D01*
X137527731Y-87369819D02*
X137527731Y-86607914D01*
X137558866Y-82243220D02*
X137558866Y-81481316D01*
D11*
X166390000Y-86407836D02*
X166390000Y-86192164D01*
X167110000Y-86407836D02*
X167110000Y-86192164D01*
X138465000Y-90111252D02*
X138465000Y-88688748D01*
X141185000Y-90111252D02*
X141185000Y-88688748D01*
X144852164Y-83930000D02*
X145067836Y-83930000D01*
X144852164Y-84650000D02*
X145067836Y-84650000D01*
X140220000Y-94366359D02*
X140220000Y-94673641D01*
X140980000Y-94366359D02*
X140980000Y-94673641D01*
X164295000Y-66592500D02*
X164295000Y-66667823D01*
X154175000Y-86293641D02*
X154175000Y-85986359D01*
X154935000Y-86293641D02*
X154935000Y-85986359D01*
X135197500Y-70975000D02*
X135122177Y-70975000D01*
X166390000Y-91822164D02*
X166390000Y-92037836D01*
X167110000Y-91822164D02*
X167110000Y-92037836D01*
X159242164Y-72015000D02*
X159457836Y-72015000D01*
X159242164Y-72735000D02*
X159457836Y-72735000D01*
X141400000Y-67445000D02*
X141400000Y-67210000D01*
X141400000Y-70190000D02*
X141400000Y-69715000D01*
X141875000Y-66970000D02*
X141700000Y-66970000D01*
X141875000Y-70190000D02*
X141400000Y-70190000D01*
X144145000Y-66970000D02*
X144620000Y-66970000D01*
X144145000Y-70190000D02*
X144620000Y-70190000D01*
X144620000Y-66970000D02*
X144620000Y-67445000D01*
X144620000Y-70190000D02*
X144620000Y-69715000D01*
X141400000Y-66970000D02*
X141160000Y-66640000D01*
X141640000Y-66640000D01*
X141400000Y-66970000D01*
G36*
X141400000Y-66970000D02*
G01*
X141160000Y-66640000D01*
X141640000Y-66640000D01*
X141400000Y-66970000D01*
G37*
X140240000Y-98172164D02*
X140240000Y-98387836D01*
X140960000Y-98172164D02*
X140960000Y-98387836D01*
X144365000Y-71642164D02*
X144365000Y-71857836D01*
X145085000Y-71642164D02*
X145085000Y-71857836D01*
X146520000Y-67553641D02*
X146520000Y-67246359D01*
X147280000Y-67553641D02*
X147280000Y-67246359D01*
X147765000Y-72965000D02*
X147765000Y-73915000D01*
X147765000Y-83185000D02*
X147765000Y-82235000D01*
X148715000Y-72965000D02*
X147765000Y-72965000D01*
X148715000Y-83185000D02*
X147765000Y-83185000D01*
X157035000Y-72965000D02*
X157985000Y-72965000D01*
X157035000Y-83185000D02*
X157985000Y-83185000D01*
X157985000Y-72965000D02*
X157985000Y-73915000D01*
X157985000Y-83185000D02*
X157985000Y-82235000D01*
X147150000Y-73915000D02*
X146810000Y-73445000D01*
X147490000Y-73445000D01*
X147150000Y-73915000D01*
G36*
X147150000Y-73915000D02*
G01*
X146810000Y-73445000D01*
X147490000Y-73445000D01*
X147150000Y-73915000D01*
G37*
X161932164Y-84485000D02*
X162147836Y-84485000D01*
X161932164Y-85205000D02*
X162147836Y-85205000D01*
D12*
X147900000Y-68490000D02*
G75*
G02*
X147800000Y-68490000I-50000J0D01*
G01*
X147800000Y-68490000D02*
G75*
G02*
X147900000Y-68490000I50000J0D01*
G01*
D11*
X133822500Y-95635000D02*
X133897823Y-95635000D01*
X156090000Y-85992164D02*
X156090000Y-86207836D01*
X156810000Y-85992164D02*
X156810000Y-86207836D01*
X141460000Y-71907836D02*
X141460000Y-71692164D01*
X142180000Y-71907836D02*
X142180000Y-71692164D01*
X154586252Y-92415000D02*
X153163748Y-92415000D01*
X154586252Y-95135000D02*
X153163748Y-95135000D01*
X145057836Y-80020000D02*
X144842164Y-80020000D01*
X145057836Y-80740000D02*
X144842164Y-80740000D01*
X144796359Y-78120000D02*
X145103641Y-78120000D01*
X144796359Y-78880000D02*
X145103641Y-78880000D01*
X152280000Y-86014211D02*
X152280000Y-86229883D01*
X153000000Y-86014211D02*
X153000000Y-86229883D01*
X150445000Y-67553641D02*
X150445000Y-67246359D01*
X151205000Y-67553641D02*
X151205000Y-67246359D01*
X138670000Y-78452164D02*
X138670000Y-78667836D01*
X139390000Y-78452164D02*
X139390000Y-78667836D01*
X147514999Y-86283641D02*
X147514999Y-85976359D01*
X148274999Y-86283641D02*
X148274999Y-85976359D01*
X149414999Y-85976359D02*
X149414999Y-86283641D01*
X150174999Y-85976359D02*
X150174999Y-86283641D01*
X140220000Y-96226359D02*
X140220000Y-96533641D01*
X140980000Y-96226359D02*
X140980000Y-96533641D01*
X164155000Y-98592500D02*
X164155000Y-98667823D01*
X138870000Y-80972500D02*
X139345000Y-80972500D01*
X138870000Y-81447500D02*
X138870000Y-80972500D01*
X138870000Y-84717500D02*
X138870000Y-85192500D01*
X143090000Y-80972500D02*
X142615000Y-80972500D01*
X143090000Y-81447500D02*
X143090000Y-80972500D01*
X143090000Y-84717500D02*
X143090000Y-85192500D01*
X143090000Y-85192500D02*
X142615000Y-85192500D01*
X151340000Y-86014211D02*
X151340000Y-86229883D01*
X152060000Y-86014211D02*
X152060000Y-86229883D01*
X133260000Y-73370000D02*
X137960000Y-73370000D01*
X133260000Y-80240000D02*
X133260000Y-73370000D01*
X133350000Y-73920000D02*
X137960000Y-73920000D01*
X133350000Y-79690000D02*
X137960000Y-79690000D01*
X135950000Y-79690000D02*
X135950000Y-73920000D01*
X137910000Y-75930000D02*
X137960000Y-75930000D01*
X137910000Y-77180000D02*
X137960000Y-77180000D01*
X137910000Y-78430000D02*
X137960000Y-78430000D01*
X137910000Y-78930000D02*
X137960000Y-78930000D01*
X137960000Y-73370000D02*
X137960000Y-74680000D01*
X137960000Y-74680000D02*
X137910000Y-74680000D01*
X137960000Y-75180000D02*
X137910000Y-75180000D01*
X137960000Y-75930000D02*
X137960000Y-75180000D01*
X137960000Y-76430000D02*
X137910000Y-76430000D01*
X137960000Y-77180000D02*
X137960000Y-76430000D01*
X137960000Y-77680000D02*
X137910000Y-77680000D01*
X137960000Y-78430000D02*
X137960000Y-77680000D01*
X137960000Y-78930000D02*
X137960000Y-80240000D01*
X137960000Y-80240000D02*
X133260000Y-80240000D01*
X163802164Y-84465000D02*
X164017836Y-84465000D01*
X163802164Y-85185000D02*
X164017836Y-85185000D01*
X152620000Y-66070000D02*
X160740000Y-66070000D01*
X152620000Y-70770000D02*
X152620000Y-66070000D01*
X153170000Y-66110000D02*
X153170000Y-70770000D01*
X153170000Y-68760000D02*
X160190000Y-68760000D01*
X153930000Y-70720000D02*
X153930000Y-70770000D01*
X153930000Y-70770000D02*
X152620000Y-70770000D01*
X154430000Y-70720000D02*
X154430000Y-70770000D01*
X154430000Y-70770000D02*
X155180000Y-70770000D01*
X155180000Y-70770000D02*
X155180000Y-70720000D01*
X155680000Y-70720000D02*
X155680000Y-70770000D01*
X155680000Y-70770000D02*
X156430000Y-70770000D01*
X156430000Y-70770000D02*
X156430000Y-70720000D01*
X156930000Y-70720000D02*
X156930000Y-70770000D01*
X156930000Y-70770000D02*
X157680000Y-70770000D01*
X157680000Y-70770000D02*
X157680000Y-70720000D01*
X158180000Y-70720000D02*
X158180000Y-70770000D01*
X158180000Y-70770000D02*
X158930000Y-70770000D01*
X158930000Y-70770000D02*
X158930000Y-70720000D01*
X159430000Y-70770000D02*
X159430000Y-70720000D01*
X160190000Y-66110000D02*
X160190000Y-70770000D01*
X160740000Y-66070000D02*
X160740000Y-70770000D01*
X160740000Y-70770000D02*
X159430000Y-70770000D01*
X150372600Y-86032164D02*
X150372600Y-86247836D01*
X151092600Y-86032164D02*
X151092600Y-86247836D01*
X136795000Y-67997500D02*
X136795000Y-67922177D01*
X142560000Y-76950000D02*
X145860000Y-76950000D01*
X145860000Y-76950000D02*
X145860000Y-72950000D01*
X148090000Y-90136252D02*
X148090000Y-88713748D01*
X150810000Y-90136252D02*
X150810000Y-88713748D01*
X145315000Y-71852836D02*
X145315000Y-71637164D01*
X146035000Y-71852836D02*
X146035000Y-71637164D01*
X144817164Y-77190000D02*
X145032836Y-77190000D01*
X144817164Y-77910000D02*
X145032836Y-77910000D01*
D12*
X151825000Y-68490000D02*
G75*
G02*
X151725000Y-68490000I-50000J0D01*
G01*
X151725000Y-68490000D02*
G75*
G02*
X151825000Y-68490000I50000J0D01*
G01*
D11*
X160990000Y-89120000D02*
X160990000Y-87170000D01*
X160990000Y-89120000D02*
X160990000Y-91070000D01*
X166110000Y-89120000D02*
X166110000Y-87170000D01*
X166110000Y-89120000D02*
X166110000Y-91070000D01*
X161085000Y-91820000D02*
X160755000Y-92060000D01*
X160755000Y-91580000D01*
X161085000Y-91820000D01*
G36*
X161085000Y-91820000D02*
G01*
X160755000Y-92060000D01*
X160755000Y-91580000D01*
X161085000Y-91820000D01*
G37*
X167177500Y-71005000D02*
X167102177Y-71005000D01*
X145707836Y-99320000D02*
X145492164Y-99320000D01*
X145707836Y-100040000D02*
X145492164Y-100040000D01*
X143827836Y-99320000D02*
X143612164Y-99320000D01*
X143827836Y-100040000D02*
X143612164Y-100040000D01*
X155125000Y-86293641D02*
X155125000Y-85986359D01*
X155885000Y-86293641D02*
X155885000Y-85986359D01*
X153240000Y-86024211D02*
X153240000Y-86239883D01*
X153960000Y-86024211D02*
X153960000Y-86239883D01*
X157325000Y-85165000D02*
X157325000Y-90675000D01*
X160625000Y-85165000D02*
X157325000Y-85165000D01*
X160625000Y-85165000D02*
X160625000Y-90675000D01*
X146290000Y-71852836D02*
X146290000Y-71637164D01*
X147010000Y-71852836D02*
X147010000Y-71637164D01*
D12*
X149875000Y-68472500D02*
G75*
G02*
X149775000Y-68472500I-50000J0D01*
G01*
X149775000Y-68472500D02*
G75*
G02*
X149875000Y-68472500I50000J0D01*
G01*
D11*
X144806359Y-82930000D02*
X145113641Y-82930000D01*
X144806359Y-83690000D02*
X145113641Y-83690000D01*
X148470000Y-67553641D02*
X148470000Y-67246359D01*
X149230000Y-67553641D02*
X149230000Y-67246359D01*
X141550000Y-78462164D02*
X141550000Y-78677836D01*
X142270000Y-78462164D02*
X142270000Y-78677836D01*
X133280000Y-93150000D02*
X133280000Y-81280000D01*
X133320000Y-81830000D02*
X137980000Y-81830000D01*
X133320000Y-92600000D02*
X137980000Y-92600000D01*
X137930000Y-83840000D02*
X137980000Y-83840000D01*
X137930000Y-85090000D02*
X137980000Y-85090000D01*
X137930000Y-86340000D02*
X137980000Y-86340000D01*
X137930000Y-87590000D02*
X137980000Y-87590000D01*
X137930000Y-88840000D02*
X137980000Y-88840000D01*
X137930000Y-90090000D02*
X137980000Y-90090000D01*
X137930000Y-91340000D02*
X137980000Y-91340000D01*
X137930000Y-91840000D02*
X137980000Y-91840000D01*
X137980000Y-81280000D02*
X133280000Y-81280000D01*
X137980000Y-81280000D02*
X137980000Y-82590000D01*
X137980000Y-82590000D02*
X137930000Y-82590000D01*
X137980000Y-83090000D02*
X137930000Y-83090000D01*
X137980000Y-83840000D02*
X137980000Y-83090000D01*
X137980000Y-84340000D02*
X137930000Y-84340000D01*
X137980000Y-85090000D02*
X137980000Y-84340000D01*
X137980000Y-85590000D02*
X137930000Y-85590000D01*
X137980000Y-86340000D02*
X137980000Y-85590000D01*
X137980000Y-86840000D02*
X137930000Y-86840000D01*
X137980000Y-87590000D02*
X137980000Y-86840000D01*
X137980000Y-88090000D02*
X137930000Y-88090000D01*
X137980000Y-88840000D02*
X137980000Y-88090000D01*
X137980000Y-89340000D02*
X137930000Y-89340000D01*
X137980000Y-90090000D02*
X137980000Y-89340000D01*
X137980000Y-90590000D02*
X137930000Y-90590000D01*
X137980000Y-91340000D02*
X137980000Y-90590000D01*
X137980000Y-91840000D02*
X137980000Y-93150000D01*
X137980000Y-93150000D02*
X133280000Y-93150000D01*
X146745200Y-91964200D02*
X147545200Y-91964200D01*
X146747000Y-96611600D02*
X146745200Y-91964200D01*
X146747000Y-96611600D02*
X147547000Y-96611600D01*
X151437800Y-91964200D02*
X150637800Y-91964200D01*
X151437800Y-96669300D02*
X150637800Y-96669300D01*
X151437800Y-96669300D02*
X151437800Y-91964200D01*
X159242164Y-71065000D02*
X159457836Y-71065000D01*
X159242164Y-71785000D02*
X159457836Y-71785000D01*
X144865000Y-90111252D02*
X144865000Y-88688748D01*
X147585000Y-90111252D02*
X147585000Y-88688748D01*
X151395000Y-69416359D02*
X151395000Y-69723641D01*
X152155000Y-69416359D02*
X152155000Y-69723641D01*
X139630000Y-78472164D02*
X139630000Y-78687836D01*
X140350000Y-78472164D02*
X140350000Y-78687836D01*
X143365000Y-71667164D02*
X143365000Y-71882836D01*
X144085000Y-71667164D02*
X144085000Y-71882836D01*
X140580000Y-78472164D02*
X140580000Y-78687836D01*
X141300000Y-78472164D02*
X141300000Y-78687836D01*
X141240000Y-95480000D02*
X141240000Y-93530000D01*
X141240000Y-95480000D02*
X141240000Y-97430000D01*
X146360000Y-95480000D02*
X146360000Y-93530000D01*
X146360000Y-95480000D02*
X146360000Y-97430000D01*
X146595000Y-93020000D02*
X146265000Y-92780000D01*
X146595000Y-92540000D01*
X146595000Y-93020000D01*
G36*
X146595000Y-93020000D02*
G01*
X146265000Y-92780000D01*
X146595000Y-92540000D01*
X146595000Y-93020000D01*
G37*
X152212200Y-87380700D02*
X152212200Y-92085800D01*
X152212200Y-87380700D02*
X153012200Y-87380700D01*
X152212200Y-92085800D02*
X153012200Y-92085800D01*
X156903000Y-87438400D02*
X156103000Y-87438400D01*
X156903000Y-87438400D02*
X156904800Y-92085800D01*
X156904800Y-92085800D02*
X156104800Y-92085800D01*
X154165000Y-95890000D02*
X154165000Y-100010000D01*
X158225000Y-95890000D02*
X154165000Y-95890000D01*
X158225000Y-95890000D02*
X158225000Y-97950000D01*
X158225000Y-97950000D02*
X160285000Y-97950000D01*
X159225000Y-95890000D02*
X160285000Y-95890000D01*
X160285000Y-95890000D02*
X160285000Y-96950000D01*
X160285000Y-97950000D02*
X160285000Y-100010000D01*
X160285000Y-100010000D02*
X154165000Y-100010000D01*
X165782500Y-95645000D02*
X165857823Y-95645000D01*
X142003641Y-99300000D02*
X141696359Y-99300000D01*
X142003641Y-100060000D02*
X141696359Y-100060000D01*
X140540000Y-71917836D02*
X140540000Y-71702164D01*
X141260000Y-71917836D02*
X141260000Y-71702164D01*
X145113641Y-79060000D02*
X144806359Y-79060000D01*
X145113641Y-79820000D02*
X144806359Y-79820000D01*
X145057836Y-80965000D02*
X144842164Y-80965000D01*
X145057836Y-81685000D02*
X144842164Y-81685000D01*
X157763748Y-92440000D02*
X159186252Y-92440000D01*
X157763748Y-95160000D02*
X159186252Y-95160000D01*
X144842164Y-84890000D02*
X145057836Y-84890000D01*
X144842164Y-85610000D02*
X145057836Y-85610000D01*
X166370000Y-88343641D02*
X166370000Y-88036359D01*
X167130000Y-88343641D02*
X167130000Y-88036359D01*
X150465000Y-69682836D02*
X150465000Y-69467164D01*
X151185000Y-69682836D02*
X151185000Y-69467164D01*
X149445000Y-69728641D02*
X149445000Y-69421359D01*
X150205000Y-69728641D02*
X150205000Y-69421359D01*
X165636359Y-84425000D02*
X165943641Y-84425000D01*
X165636359Y-85185000D02*
X165943641Y-85185000D01*
X166360000Y-90223641D02*
X166360000Y-89916359D01*
X167120000Y-90223641D02*
X167120000Y-89916359D01*
X146615000Y-96825000D02*
X146615000Y-100125000D01*
X146615000Y-96825000D02*
X152125000Y-96825000D01*
X146615000Y-100125000D02*
X152125000Y-100125000D01*
X140240000Y-92572164D02*
X140240000Y-92787836D01*
X140960000Y-92572164D02*
X140960000Y-92787836D01*
D12*
X139035000Y-74630000D02*
X139035000Y-74190000D01*
X139035000Y-76190000D02*
X139035000Y-75550000D01*
X139035000Y-76190000D02*
X139185000Y-76190000D01*
X141460000Y-76165000D02*
X141610000Y-76165000D01*
X141585000Y-73990000D02*
X141735000Y-73990000D01*
X141735000Y-74630000D02*
X141735000Y-73990000D01*
X141735000Y-76190000D02*
X141735000Y-75550000D01*
X139035000Y-73990000D02*
X138675000Y-73990000D01*
X139035000Y-73630000D01*
X139035000Y-73990000D01*
G36*
X139035000Y-73990000D02*
G01*
X138675000Y-73990000D01*
X139035000Y-73630000D01*
X139035000Y-73990000D01*
G37*
D13*
X138775000Y-70300000D02*
G75*
G02*
X136225000Y-70300000I-1275000J0D01*
G01*
X136225000Y-70300000D02*
G75*
G02*
X138775000Y-70300000I1275000J0D01*
G01*
X138775000Y-96300000D02*
G75*
G02*
X136225000Y-96300000I-1275000J0D01*
G01*
X136225000Y-96300000D02*
G75*
G02*
X138775000Y-96300000I1275000J0D01*
G01*
X164775000Y-70300000D02*
G75*
G02*
X162225000Y-70300000I-1275000J0D01*
G01*
X162225000Y-70300000D02*
G75*
G02*
X164775000Y-70300000I1275000J0D01*
G01*
X164775000Y-96300000D02*
G75*
G02*
X162225000Y-96300000I-1275000J0D01*
G01*
X162225000Y-96300000D02*
G75*
G02*
X164775000Y-96300000I1275000J0D01*
G01*
D11*
X146565000Y-69467164D02*
X146565000Y-69682836D01*
X147285000Y-69467164D02*
X147285000Y-69682836D01*
X142400000Y-71897836D02*
X142400000Y-71682164D01*
X143120000Y-71897836D02*
X143120000Y-71682164D01*
X141665000Y-90111252D02*
X141665000Y-88688748D01*
X144385000Y-90111252D02*
X144385000Y-88688748D01*
X148490000Y-86009211D02*
X148490000Y-86224883D01*
X149210000Y-86009211D02*
X149210000Y-86224883D01*
%LPC*%
D14*
X166750000Y-86780000D03*
X166750000Y-85820000D03*
D15*
X139825000Y-90875000D03*
X139825000Y-87925000D03*
D16*
X144480000Y-84290000D03*
X145440000Y-84290000D03*
D17*
X140600000Y-94010000D03*
X140600000Y-95030000D03*
D18*
X164735000Y-67287500D03*
X162485000Y-67287500D03*
D19*
X154555000Y-86650000D03*
X154555000Y-85630000D03*
D18*
X134502500Y-71415000D03*
X134502500Y-69165000D03*
D20*
X166750000Y-91450000D03*
X166750000Y-92410000D03*
D16*
X158870000Y-72375000D03*
X159830000Y-72375000D03*
D21*
X141547500Y-67830000D03*
X141547500Y-68330000D03*
X141547500Y-68830000D03*
X141547500Y-69330000D03*
D22*
X142260000Y-70042500D03*
X142760000Y-70042500D03*
X143260000Y-70042500D03*
X143760000Y-70042500D03*
D21*
X144472500Y-69330000D03*
X144472500Y-68830000D03*
X144472500Y-68330000D03*
X144472500Y-67830000D03*
D22*
X143760000Y-67117500D03*
X143260000Y-67117500D03*
X142760000Y-67117500D03*
X142260000Y-67117500D03*
D20*
X140600000Y-97800000D03*
X140600000Y-98760000D03*
X144725000Y-71270000D03*
X144725000Y-72230000D03*
D19*
X146900000Y-67910000D03*
X146900000Y-66890000D03*
D23*
X147200000Y-74325000D03*
X147200000Y-74825000D03*
X147200000Y-75325000D03*
X147200000Y-75825000D03*
X147200000Y-76325000D03*
X147200000Y-76825000D03*
X147200000Y-77325000D03*
X147200000Y-77825000D03*
X147200000Y-78325000D03*
X147200000Y-78825000D03*
X147200000Y-79325000D03*
X147200000Y-79825000D03*
X147200000Y-80325000D03*
X147200000Y-80825000D03*
X147200000Y-81325000D03*
X147200000Y-81825000D03*
D24*
X149125000Y-83750000D03*
X149625000Y-83750000D03*
X150125000Y-83750000D03*
X150625000Y-83750000D03*
X151125000Y-83750000D03*
X151625000Y-83750000D03*
X152125000Y-83750000D03*
X152625000Y-83750000D03*
X153125000Y-83750000D03*
X153625000Y-83750000D03*
X154125000Y-83750000D03*
X154625000Y-83750000D03*
X155125000Y-83750000D03*
X155625000Y-83750000D03*
X156125000Y-83750000D03*
X156625000Y-83750000D03*
D23*
X158550000Y-81825000D03*
X158550000Y-81325000D03*
X158550000Y-80825000D03*
X158550000Y-80325000D03*
X158550000Y-79825000D03*
X158550000Y-79325000D03*
X158550000Y-78825000D03*
X158550000Y-78325000D03*
X158550000Y-77825000D03*
X158550000Y-77325000D03*
X158550000Y-76825000D03*
X158550000Y-76325000D03*
X158550000Y-75825000D03*
X158550000Y-75325000D03*
X158550000Y-74825000D03*
X158550000Y-74325000D03*
D24*
X156625000Y-72400000D03*
X156125000Y-72400000D03*
X155625000Y-72400000D03*
X155125000Y-72400000D03*
X154625000Y-72400000D03*
X154125000Y-72400000D03*
X153625000Y-72400000D03*
X153125000Y-72400000D03*
X152625000Y-72400000D03*
X152125000Y-72400000D03*
X151625000Y-72400000D03*
X151125000Y-72400000D03*
X150625000Y-72400000D03*
X150125000Y-72400000D03*
X149625000Y-72400000D03*
X149125000Y-72400000D03*
D16*
X161560000Y-84845000D03*
X162520000Y-84845000D03*
D25*
X147850000Y-67885000D03*
X147850000Y-66915000D03*
D18*
X134517500Y-95195000D03*
X134517500Y-97445000D03*
D20*
X156450000Y-85620000D03*
X156450000Y-86580000D03*
D14*
X141820000Y-72280000D03*
X141820000Y-71320000D03*
D26*
X155350000Y-93775000D03*
X152400000Y-93775000D03*
D27*
X145430000Y-80380000D03*
X144470000Y-80380000D03*
D28*
X144440000Y-78500000D03*
X145460000Y-78500000D03*
D20*
X152640000Y-85642047D03*
X152640000Y-86602047D03*
D19*
X150825000Y-67910000D03*
X150825000Y-66890000D03*
D20*
X139030000Y-78080000D03*
X139030000Y-79040000D03*
D19*
X147894999Y-86640000D03*
X147894999Y-85620000D03*
D17*
X149794999Y-85620000D03*
X149794999Y-86640000D03*
X140600000Y-95870000D03*
X140600000Y-96890000D03*
D18*
X164595000Y-99287500D03*
X162345000Y-99287500D03*
D29*
X139730000Y-85020000D03*
X140230000Y-85020000D03*
X140730000Y-85020000D03*
X141230000Y-85020000D03*
X141730000Y-85020000D03*
X142230000Y-85020000D03*
D30*
X142917500Y-84332500D03*
X142917500Y-83832500D03*
X142917500Y-83332500D03*
X142917500Y-82832500D03*
X142917500Y-82332500D03*
X142917500Y-81832500D03*
D29*
X142230000Y-81145000D03*
X141730000Y-81145000D03*
X141230000Y-81145000D03*
X140730000Y-81145000D03*
X140230000Y-81145000D03*
X139730000Y-81145000D03*
D30*
X139042500Y-81832500D03*
X139042500Y-82332500D03*
X139042500Y-82832500D03*
X139042500Y-83332500D03*
X139042500Y-83832500D03*
X139042500Y-84332500D03*
D31*
X140980000Y-83082500D03*
D20*
X151700000Y-85642047D03*
X151700000Y-86602047D03*
D32*
X136950000Y-78680000D03*
D33*
X136950000Y-77430000D03*
X136950000Y-76180000D03*
X136950000Y-74930000D03*
D16*
X163430000Y-84825000D03*
X164390000Y-84825000D03*
D34*
X154180000Y-69760000D03*
D35*
X155430000Y-69760000D03*
X156680000Y-69760000D03*
X157930000Y-69760000D03*
X159180000Y-69760000D03*
D20*
X150732600Y-85660000D03*
X150732600Y-86620000D03*
D36*
X163910000Y-74750000D03*
X163910000Y-76750000D03*
X163910000Y-78750000D03*
X163910000Y-80750000D03*
X163910000Y-82750000D03*
D18*
X136355000Y-67302500D03*
X138605000Y-67302500D03*
D37*
X145060000Y-76050000D03*
X145060000Y-73850000D03*
X143360000Y-73850000D03*
X143360000Y-76050000D03*
D15*
X149450000Y-90900000D03*
X149450000Y-87950000D03*
D14*
X145675000Y-72225000D03*
X145675000Y-71265000D03*
D16*
X144445000Y-77550000D03*
X145405000Y-77550000D03*
D25*
X151775000Y-67885000D03*
X151775000Y-66915000D03*
D38*
X161645000Y-91595000D03*
X162915000Y-91595000D03*
X164185000Y-91595000D03*
X165455000Y-91595000D03*
X165455000Y-86645000D03*
X164185000Y-86645000D03*
X162915000Y-86645000D03*
X161645000Y-86645000D03*
D39*
X163550000Y-89120000D03*
D18*
X166482500Y-71445000D03*
X166482500Y-69195000D03*
D27*
X146080000Y-99680000D03*
X145120000Y-99680000D03*
X144200000Y-99680000D03*
X143240000Y-99680000D03*
D19*
X155505000Y-86650000D03*
X155505000Y-85630000D03*
D20*
X153600000Y-85652047D03*
X153600000Y-86612047D03*
D40*
X158975000Y-86675000D03*
X158975000Y-90675000D03*
D14*
X146650000Y-72225000D03*
X146650000Y-71265000D03*
D25*
X149825000Y-67867500D03*
X149825000Y-66897500D03*
D28*
X144450000Y-83310000D03*
X145470000Y-83310000D03*
D19*
X148850000Y-67910000D03*
X148850000Y-66890000D03*
D36*
X161910000Y-74750000D03*
X161910000Y-76750000D03*
X161910000Y-78750000D03*
X161910000Y-80750000D03*
X161910000Y-82750000D03*
D20*
X141910000Y-78090000D03*
X141910000Y-79050000D03*
D32*
X136970000Y-91590000D03*
D33*
X136970000Y-90340000D03*
X136970000Y-89090000D03*
X136970000Y-87840000D03*
X136970000Y-86590000D03*
X136970000Y-85340000D03*
X136970000Y-84090000D03*
X136970000Y-82840000D03*
D41*
X149101000Y-95799600D03*
X149101000Y-92802400D03*
D16*
X158870000Y-71425000D03*
X159830000Y-71425000D03*
D15*
X146225000Y-90875000D03*
X146225000Y-87925000D03*
D17*
X151775000Y-69060000D03*
X151775000Y-70080000D03*
D20*
X139990000Y-78100000D03*
X139990000Y-79060000D03*
X143725000Y-71295000D03*
X143725000Y-72255000D03*
X140940000Y-78100000D03*
X140940000Y-79060000D03*
D42*
X145705000Y-93005000D03*
X144435000Y-93005000D03*
X143165000Y-93005000D03*
X141895000Y-93005000D03*
X141895000Y-97955000D03*
X143165000Y-97955000D03*
X144435000Y-97955000D03*
X145705000Y-97955000D03*
D39*
X143800000Y-95480000D03*
D41*
X154549000Y-88250400D03*
X154549000Y-91247600D03*
D43*
X159225000Y-96950000D03*
D36*
X159225000Y-98950000D03*
X157225000Y-96950000D03*
X157225000Y-98950000D03*
X155225000Y-96950000D03*
X155225000Y-98950000D03*
D18*
X166477500Y-95205000D03*
X166477500Y-97455000D03*
D44*
X142360000Y-99680000D03*
X141340000Y-99680000D03*
D14*
X140900000Y-72290000D03*
X140900000Y-71330000D03*
D44*
X145470000Y-79440000D03*
X144450000Y-79440000D03*
D27*
X145430000Y-81325000D03*
X144470000Y-81325000D03*
D45*
X157000000Y-93800000D03*
X159950000Y-93800000D03*
D16*
X144470000Y-85250000D03*
X145430000Y-85250000D03*
D19*
X166750000Y-88700000D03*
X166750000Y-87680000D03*
D14*
X150825000Y-70055000D03*
X150825000Y-69095000D03*
D19*
X149825000Y-70085000D03*
X149825000Y-69065000D03*
D28*
X165280000Y-84805000D03*
X166300000Y-84805000D03*
D19*
X166740000Y-90580000D03*
X166740000Y-89560000D03*
D46*
X148125000Y-98475000D03*
X152125000Y-98475000D03*
D20*
X140600000Y-92200000D03*
X140600000Y-93160000D03*
D47*
X139410000Y-74290000D03*
X140060000Y-74290000D03*
X140710000Y-74290000D03*
X141360000Y-74290000D03*
X141360000Y-75890000D03*
X140710000Y-75890000D03*
X140060000Y-75890000D03*
X139410000Y-75890000D03*
D20*
X146925000Y-69095000D03*
X146925000Y-70055000D03*
D14*
X142760000Y-72270000D03*
X142760000Y-71310000D03*
D36*
X165910000Y-74725000D03*
X165910000Y-76725000D03*
X165910000Y-78725000D03*
X165910000Y-80725000D03*
X165910000Y-82725000D03*
D15*
X143025000Y-90875000D03*
X143025000Y-87925000D03*
D20*
X148850000Y-85637047D03*
X148850000Y-86597047D03*
D18*
X136375000Y-99317500D03*
X138625000Y-99317500D03*
%LPD*%
M02*
