G04 #@! TF.GenerationSoftware,KiCad,Pcbnew,8.0.4-8.0.4-0~ubuntu24.04.1*
G04 #@! TF.CreationDate,2024-09-03T20:49:10+07:00*
G04 #@! TF.ProjectId,OpenDrone_FC_F405_HW,4f70656e-4472-46f6-9e65-5f46435f4634,rev?*
G04 #@! TF.SameCoordinates,Original*
G04 #@! TF.FileFunction,Legend,Bot*
G04 #@! TF.FilePolarity,Positive*
%FSLAX46Y46*%
G04 Gerber Fmt 4.6, Leading zero omitted, Abs format (unit mm)*
G04 Created by KiCad (PCBNEW 8.0.4-8.0.4-0~ubuntu24.04.1) date 2024-09-03 20:49:10*
%MOMM*%
%LPD*%
G01*
G04 APERTURE LIST*
G04 Aperture macros list*
%AMRoundRect*
0 Rectangle with rounded corners*
0 $1 Rounding radius*
0 $2 $3 $4 $5 $6 $7 $8 $9 X,Y pos of 4 corners*
0 Add a 4 corners polygon primitive as box body*
4,1,4,$2,$3,$4,$5,$6,$7,$8,$9,$2,$3,0*
0 Add four circle primitives for the rounded corners*
1,1,$1+$1,$2,$3*
1,1,$1+$1,$4,$5*
1,1,$1+$1,$6,$7*
1,1,$1+$1,$8,$9*
0 Add four rect primitives between the rounded corners*
20,1,$1+$1,$2,$3,$4,$5,0*
20,1,$1+$1,$4,$5,$6,$7,0*
20,1,$1+$1,$6,$7,$8,$9,0*
20,1,$1+$1,$8,$9,$2,$3,0*%
G04 Aperture macros list end*
%ADD10C,0.150000*%
%ADD11C,2.550000*%
%ADD12C,0.120000*%
%ADD13O,1.200000X1.200000*%
%ADD14RoundRect,0.225000X0.475000X-0.225000X0.475000X0.225000X-0.475000X0.225000X-0.475000X-0.225000X0*%
%ADD15O,1.400000X0.900000*%
%ADD16RoundRect,0.225000X-0.225000X-0.475000X0.225000X-0.475000X0.225000X0.475000X-0.225000X0.475000X0*%
%ADD17O,0.900000X1.400000*%
%ADD18O,1.350000X1.350000*%
%ADD19R,1.350000X1.350000*%
G04 APERTURE END LIST*
D10*
X153984649Y-74936533D02*
X153984649Y-74236533D01*
X153984649Y-74236533D02*
X153751316Y-74736533D01*
X153751316Y-74736533D02*
X153517982Y-74236533D01*
X153517982Y-74236533D02*
X153517982Y-74936533D01*
X153051316Y-74236533D02*
X152917982Y-74236533D01*
X152917982Y-74236533D02*
X152851316Y-74269866D01*
X152851316Y-74269866D02*
X152784649Y-74336533D01*
X152784649Y-74336533D02*
X152751316Y-74469866D01*
X152751316Y-74469866D02*
X152751316Y-74703200D01*
X152751316Y-74703200D02*
X152784649Y-74836533D01*
X152784649Y-74836533D02*
X152851316Y-74903200D01*
X152851316Y-74903200D02*
X152917982Y-74936533D01*
X152917982Y-74936533D02*
X153051316Y-74936533D01*
X153051316Y-74936533D02*
X153117982Y-74903200D01*
X153117982Y-74903200D02*
X153184649Y-74836533D01*
X153184649Y-74836533D02*
X153217982Y-74703200D01*
X153217982Y-74703200D02*
X153217982Y-74469866D01*
X153217982Y-74469866D02*
X153184649Y-74336533D01*
X153184649Y-74336533D02*
X153117982Y-74269866D01*
X153117982Y-74269866D02*
X153051316Y-74236533D01*
X152484649Y-74303200D02*
X152451316Y-74269866D01*
X152451316Y-74269866D02*
X152384649Y-74236533D01*
X152384649Y-74236533D02*
X152217983Y-74236533D01*
X152217983Y-74236533D02*
X152151316Y-74269866D01*
X152151316Y-74269866D02*
X152117983Y-74303200D01*
X152117983Y-74303200D02*
X152084649Y-74369866D01*
X152084649Y-74369866D02*
X152084649Y-74436533D01*
X152084649Y-74436533D02*
X152117983Y-74536533D01*
X152117983Y-74536533D02*
X152517983Y-74936533D01*
X152517983Y-74936533D02*
X152084649Y-74936533D01*
X160244649Y-81036533D02*
X160244649Y-80336533D01*
X160244649Y-80336533D02*
X160011316Y-80836533D01*
X160011316Y-80836533D02*
X159777982Y-80336533D01*
X159777982Y-80336533D02*
X159777982Y-81036533D01*
X159311316Y-80336533D02*
X159177982Y-80336533D01*
X159177982Y-80336533D02*
X159111316Y-80369866D01*
X159111316Y-80369866D02*
X159044649Y-80436533D01*
X159044649Y-80436533D02*
X159011316Y-80569866D01*
X159011316Y-80569866D02*
X159011316Y-80803200D01*
X159011316Y-80803200D02*
X159044649Y-80936533D01*
X159044649Y-80936533D02*
X159111316Y-81003200D01*
X159111316Y-81003200D02*
X159177982Y-81036533D01*
X159177982Y-81036533D02*
X159311316Y-81036533D01*
X159311316Y-81036533D02*
X159377982Y-81003200D01*
X159377982Y-81003200D02*
X159444649Y-80936533D01*
X159444649Y-80936533D02*
X159477982Y-80803200D01*
X159477982Y-80803200D02*
X159477982Y-80569866D01*
X159477982Y-80569866D02*
X159444649Y-80436533D01*
X159444649Y-80436533D02*
X159377982Y-80369866D01*
X159377982Y-80369866D02*
X159311316Y-80336533D01*
X158344649Y-81036533D02*
X158744649Y-81036533D01*
X158544649Y-81036533D02*
X158544649Y-80336533D01*
X158544649Y-80336533D02*
X158611316Y-80436533D01*
X158611316Y-80436533D02*
X158677983Y-80503200D01*
X158677983Y-80503200D02*
X158744649Y-80536533D01*
X157217982Y-79013200D02*
X157117982Y-79046533D01*
X157117982Y-79046533D02*
X156951316Y-79046533D01*
X156951316Y-79046533D02*
X156884649Y-79013200D01*
X156884649Y-79013200D02*
X156851316Y-78979866D01*
X156851316Y-78979866D02*
X156817982Y-78913200D01*
X156817982Y-78913200D02*
X156817982Y-78846533D01*
X156817982Y-78846533D02*
X156851316Y-78779866D01*
X156851316Y-78779866D02*
X156884649Y-78746533D01*
X156884649Y-78746533D02*
X156951316Y-78713200D01*
X156951316Y-78713200D02*
X157084649Y-78679866D01*
X157084649Y-78679866D02*
X157151316Y-78646533D01*
X157151316Y-78646533D02*
X157184649Y-78613200D01*
X157184649Y-78613200D02*
X157217982Y-78546533D01*
X157217982Y-78546533D02*
X157217982Y-78479866D01*
X157217982Y-78479866D02*
X157184649Y-78413200D01*
X157184649Y-78413200D02*
X157151316Y-78379866D01*
X157151316Y-78379866D02*
X157084649Y-78346533D01*
X157084649Y-78346533D02*
X156917982Y-78346533D01*
X156917982Y-78346533D02*
X156817982Y-78379866D01*
X156117982Y-78979866D02*
X156151315Y-79013200D01*
X156151315Y-79013200D02*
X156251315Y-79046533D01*
X156251315Y-79046533D02*
X156317982Y-79046533D01*
X156317982Y-79046533D02*
X156417982Y-79013200D01*
X156417982Y-79013200D02*
X156484649Y-78946533D01*
X156484649Y-78946533D02*
X156517982Y-78879866D01*
X156517982Y-78879866D02*
X156551315Y-78746533D01*
X156551315Y-78746533D02*
X156551315Y-78646533D01*
X156551315Y-78646533D02*
X156517982Y-78513200D01*
X156517982Y-78513200D02*
X156484649Y-78446533D01*
X156484649Y-78446533D02*
X156417982Y-78379866D01*
X156417982Y-78379866D02*
X156317982Y-78346533D01*
X156317982Y-78346533D02*
X156251315Y-78346533D01*
X156251315Y-78346533D02*
X156151315Y-78379866D01*
X156151315Y-78379866D02*
X156117982Y-78413200D01*
X155484649Y-79046533D02*
X155817982Y-79046533D01*
X155817982Y-79046533D02*
X155817982Y-78346533D01*
X154884648Y-79046533D02*
X155284648Y-79046533D01*
X155084648Y-79046533D02*
X155084648Y-78346533D01*
X155084648Y-78346533D02*
X155151315Y-78446533D01*
X155151315Y-78446533D02*
X155217982Y-78513200D01*
X155217982Y-78513200D02*
X155284648Y-78546533D01*
X135804649Y-75776533D02*
X135404649Y-75776533D01*
X135604649Y-76476533D02*
X135604649Y-75776533D01*
X134804649Y-76476533D02*
X135204649Y-76476533D01*
X135004649Y-76476533D02*
X135004649Y-75776533D01*
X135004649Y-75776533D02*
X135071316Y-75876533D01*
X135071316Y-75876533D02*
X135137983Y-75943200D01*
X135137983Y-75943200D02*
X135204649Y-75976533D01*
X141154649Y-99646533D02*
X141154649Y-98946533D01*
X141154649Y-98946533D02*
X140987982Y-98946533D01*
X140987982Y-98946533D02*
X140887982Y-98979866D01*
X140887982Y-98979866D02*
X140821316Y-99046533D01*
X140821316Y-99046533D02*
X140787982Y-99113200D01*
X140787982Y-99113200D02*
X140754649Y-99246533D01*
X140754649Y-99246533D02*
X140754649Y-99346533D01*
X140754649Y-99346533D02*
X140787982Y-99479866D01*
X140787982Y-99479866D02*
X140821316Y-99546533D01*
X140821316Y-99546533D02*
X140887982Y-99613200D01*
X140887982Y-99613200D02*
X140987982Y-99646533D01*
X140987982Y-99646533D02*
X141154649Y-99646533D01*
X140487982Y-99446533D02*
X140154649Y-99446533D01*
X140554649Y-99646533D02*
X140321316Y-98946533D01*
X140321316Y-98946533D02*
X140087982Y-99646533D01*
X139887982Y-99013200D02*
X139854649Y-98979866D01*
X139854649Y-98979866D02*
X139787982Y-98946533D01*
X139787982Y-98946533D02*
X139621316Y-98946533D01*
X139621316Y-98946533D02*
X139554649Y-98979866D01*
X139554649Y-98979866D02*
X139521316Y-99013200D01*
X139521316Y-99013200D02*
X139487982Y-99079866D01*
X139487982Y-99079866D02*
X139487982Y-99146533D01*
X139487982Y-99146533D02*
X139521316Y-99246533D01*
X139521316Y-99246533D02*
X139921316Y-99646533D01*
X139921316Y-99646533D02*
X139487982Y-99646533D01*
X135581316Y-67016533D02*
X135414649Y-67716533D01*
X135414649Y-67716533D02*
X135281316Y-67216533D01*
X135281316Y-67216533D02*
X135147982Y-67716533D01*
X135147982Y-67716533D02*
X134981316Y-67016533D01*
X134747982Y-67683200D02*
X134647982Y-67716533D01*
X134647982Y-67716533D02*
X134481316Y-67716533D01*
X134481316Y-67716533D02*
X134414649Y-67683200D01*
X134414649Y-67683200D02*
X134381316Y-67649866D01*
X134381316Y-67649866D02*
X134347982Y-67583200D01*
X134347982Y-67583200D02*
X134347982Y-67516533D01*
X134347982Y-67516533D02*
X134381316Y-67449866D01*
X134381316Y-67449866D02*
X134414649Y-67416533D01*
X134414649Y-67416533D02*
X134481316Y-67383200D01*
X134481316Y-67383200D02*
X134614649Y-67349866D01*
X134614649Y-67349866D02*
X134681316Y-67316533D01*
X134681316Y-67316533D02*
X134714649Y-67283200D01*
X134714649Y-67283200D02*
X134747982Y-67216533D01*
X134747982Y-67216533D02*
X134747982Y-67149866D01*
X134747982Y-67149866D02*
X134714649Y-67083200D01*
X134714649Y-67083200D02*
X134681316Y-67049866D01*
X134681316Y-67049866D02*
X134614649Y-67016533D01*
X134614649Y-67016533D02*
X134447982Y-67016533D01*
X134447982Y-67016533D02*
X134347982Y-67049866D01*
X134081315Y-67083200D02*
X134047982Y-67049866D01*
X134047982Y-67049866D02*
X133981315Y-67016533D01*
X133981315Y-67016533D02*
X133814649Y-67016533D01*
X133814649Y-67016533D02*
X133747982Y-67049866D01*
X133747982Y-67049866D02*
X133714649Y-67083200D01*
X133714649Y-67083200D02*
X133681315Y-67149866D01*
X133681315Y-67149866D02*
X133681315Y-67216533D01*
X133681315Y-67216533D02*
X133714649Y-67316533D01*
X133714649Y-67316533D02*
X134114649Y-67716533D01*
X134114649Y-67716533D02*
X133681315Y-67716533D01*
X134327982Y-96009866D02*
X134394649Y-95976533D01*
X134394649Y-95976533D02*
X134494649Y-95976533D01*
X134494649Y-95976533D02*
X134594649Y-96009866D01*
X134594649Y-96009866D02*
X134661316Y-96076533D01*
X134661316Y-96076533D02*
X134694649Y-96143200D01*
X134694649Y-96143200D02*
X134727982Y-96276533D01*
X134727982Y-96276533D02*
X134727982Y-96376533D01*
X134727982Y-96376533D02*
X134694649Y-96509866D01*
X134694649Y-96509866D02*
X134661316Y-96576533D01*
X134661316Y-96576533D02*
X134594649Y-96643200D01*
X134594649Y-96643200D02*
X134494649Y-96676533D01*
X134494649Y-96676533D02*
X134427982Y-96676533D01*
X134427982Y-96676533D02*
X134327982Y-96643200D01*
X134327982Y-96643200D02*
X134294649Y-96609866D01*
X134294649Y-96609866D02*
X134294649Y-96376533D01*
X134294649Y-96376533D02*
X134427982Y-96376533D01*
X135024649Y-99609866D02*
X135057982Y-99643200D01*
X135057982Y-99643200D02*
X135157982Y-99676533D01*
X135157982Y-99676533D02*
X135224649Y-99676533D01*
X135224649Y-99676533D02*
X135324649Y-99643200D01*
X135324649Y-99643200D02*
X135391316Y-99576533D01*
X135391316Y-99576533D02*
X135424649Y-99509866D01*
X135424649Y-99509866D02*
X135457982Y-99376533D01*
X135457982Y-99376533D02*
X135457982Y-99276533D01*
X135457982Y-99276533D02*
X135424649Y-99143200D01*
X135424649Y-99143200D02*
X135391316Y-99076533D01*
X135391316Y-99076533D02*
X135324649Y-99009866D01*
X135324649Y-99009866D02*
X135224649Y-98976533D01*
X135224649Y-98976533D02*
X135157982Y-98976533D01*
X135157982Y-98976533D02*
X135057982Y-99009866D01*
X135057982Y-99009866D02*
X135024649Y-99043200D01*
X134391316Y-99676533D02*
X134724649Y-99676533D01*
X134724649Y-99676533D02*
X134724649Y-98976533D01*
X134191315Y-99043200D02*
X134157982Y-99009866D01*
X134157982Y-99009866D02*
X134091315Y-98976533D01*
X134091315Y-98976533D02*
X133924649Y-98976533D01*
X133924649Y-98976533D02*
X133857982Y-99009866D01*
X133857982Y-99009866D02*
X133824649Y-99043200D01*
X133824649Y-99043200D02*
X133791315Y-99109866D01*
X133791315Y-99109866D02*
X133791315Y-99176533D01*
X133791315Y-99176533D02*
X133824649Y-99276533D01*
X133824649Y-99276533D02*
X134224649Y-99676533D01*
X134224649Y-99676533D02*
X133791315Y-99676533D01*
X135704649Y-83176533D02*
X135704649Y-82476533D01*
X135704649Y-82476533D02*
X135471316Y-82976533D01*
X135471316Y-82976533D02*
X135237982Y-82476533D01*
X135237982Y-82476533D02*
X135237982Y-83176533D01*
X134537982Y-83176533D02*
X134937982Y-83176533D01*
X134737982Y-83176533D02*
X134737982Y-82476533D01*
X134737982Y-82476533D02*
X134804649Y-82576533D01*
X134804649Y-82576533D02*
X134871316Y-82643200D01*
X134871316Y-82643200D02*
X134937982Y-82676533D01*
X153984649Y-77026533D02*
X153984649Y-76326533D01*
X153984649Y-76326533D02*
X153751316Y-76826533D01*
X153751316Y-76826533D02*
X153517982Y-76326533D01*
X153517982Y-76326533D02*
X153517982Y-77026533D01*
X153184649Y-77026533D02*
X153184649Y-76326533D01*
X152884649Y-76393200D02*
X152851316Y-76359866D01*
X152851316Y-76359866D02*
X152784649Y-76326533D01*
X152784649Y-76326533D02*
X152617983Y-76326533D01*
X152617983Y-76326533D02*
X152551316Y-76359866D01*
X152551316Y-76359866D02*
X152517983Y-76393200D01*
X152517983Y-76393200D02*
X152484649Y-76459866D01*
X152484649Y-76459866D02*
X152484649Y-76526533D01*
X152484649Y-76526533D02*
X152517983Y-76626533D01*
X152517983Y-76626533D02*
X152917983Y-77026533D01*
X152917983Y-77026533D02*
X152484649Y-77026533D01*
X148109649Y-88931533D02*
X147876316Y-89631533D01*
X147876316Y-89631533D02*
X147642982Y-88931533D01*
X147442982Y-88998200D02*
X147409649Y-88964866D01*
X147409649Y-88964866D02*
X147342982Y-88931533D01*
X147342982Y-88931533D02*
X147176316Y-88931533D01*
X147176316Y-88931533D02*
X147109649Y-88964866D01*
X147109649Y-88964866D02*
X147076316Y-88998200D01*
X147076316Y-88998200D02*
X147042982Y-89064866D01*
X147042982Y-89064866D02*
X147042982Y-89131533D01*
X147042982Y-89131533D02*
X147076316Y-89231533D01*
X147076316Y-89231533D02*
X147476316Y-89631533D01*
X147476316Y-89631533D02*
X147042982Y-89631533D01*
X146742982Y-89564866D02*
X146709649Y-89598200D01*
X146709649Y-89598200D02*
X146742982Y-89631533D01*
X146742982Y-89631533D02*
X146776315Y-89598200D01*
X146776315Y-89598200D02*
X146742982Y-89564866D01*
X146742982Y-89564866D02*
X146742982Y-89631533D01*
X146276316Y-88931533D02*
X146209649Y-88931533D01*
X146209649Y-88931533D02*
X146142982Y-88964866D01*
X146142982Y-88964866D02*
X146109649Y-88998200D01*
X146109649Y-88998200D02*
X146076316Y-89064866D01*
X146076316Y-89064866D02*
X146042982Y-89198200D01*
X146042982Y-89198200D02*
X146042982Y-89364866D01*
X146042982Y-89364866D02*
X146076316Y-89498200D01*
X146076316Y-89498200D02*
X146109649Y-89564866D01*
X146109649Y-89564866D02*
X146142982Y-89598200D01*
X146142982Y-89598200D02*
X146209649Y-89631533D01*
X146209649Y-89631533D02*
X146276316Y-89631533D01*
X146276316Y-89631533D02*
X146342982Y-89598200D01*
X146342982Y-89598200D02*
X146376316Y-89564866D01*
X146376316Y-89564866D02*
X146409649Y-89498200D01*
X146409649Y-89498200D02*
X146442982Y-89364866D01*
X146442982Y-89364866D02*
X146442982Y-89198200D01*
X146442982Y-89198200D02*
X146409649Y-89064866D01*
X146409649Y-89064866D02*
X146376316Y-88998200D01*
X146376316Y-88998200D02*
X146342982Y-88964866D01*
X146342982Y-88964866D02*
X146276316Y-88931533D01*
X153594649Y-80989866D02*
X153627982Y-81023200D01*
X153627982Y-81023200D02*
X153727982Y-81056533D01*
X153727982Y-81056533D02*
X153794649Y-81056533D01*
X153794649Y-81056533D02*
X153894649Y-81023200D01*
X153894649Y-81023200D02*
X153961316Y-80956533D01*
X153961316Y-80956533D02*
X153994649Y-80889866D01*
X153994649Y-80889866D02*
X154027982Y-80756533D01*
X154027982Y-80756533D02*
X154027982Y-80656533D01*
X154027982Y-80656533D02*
X153994649Y-80523200D01*
X153994649Y-80523200D02*
X153961316Y-80456533D01*
X153961316Y-80456533D02*
X153894649Y-80389866D01*
X153894649Y-80389866D02*
X153794649Y-80356533D01*
X153794649Y-80356533D02*
X153727982Y-80356533D01*
X153727982Y-80356533D02*
X153627982Y-80389866D01*
X153627982Y-80389866D02*
X153594649Y-80423200D01*
X153327982Y-81023200D02*
X153227982Y-81056533D01*
X153227982Y-81056533D02*
X153061316Y-81056533D01*
X153061316Y-81056533D02*
X152994649Y-81023200D01*
X152994649Y-81023200D02*
X152961316Y-80989866D01*
X152961316Y-80989866D02*
X152927982Y-80923200D01*
X152927982Y-80923200D02*
X152927982Y-80856533D01*
X152927982Y-80856533D02*
X152961316Y-80789866D01*
X152961316Y-80789866D02*
X152994649Y-80756533D01*
X152994649Y-80756533D02*
X153061316Y-80723200D01*
X153061316Y-80723200D02*
X153194649Y-80689866D01*
X153194649Y-80689866D02*
X153261316Y-80656533D01*
X153261316Y-80656533D02*
X153294649Y-80623200D01*
X153294649Y-80623200D02*
X153327982Y-80556533D01*
X153327982Y-80556533D02*
X153327982Y-80489866D01*
X153327982Y-80489866D02*
X153294649Y-80423200D01*
X153294649Y-80423200D02*
X153261316Y-80389866D01*
X153261316Y-80389866D02*
X153194649Y-80356533D01*
X153194649Y-80356533D02*
X153027982Y-80356533D01*
X153027982Y-80356533D02*
X152927982Y-80389866D01*
X152661315Y-80423200D02*
X152627982Y-80389866D01*
X152627982Y-80389866D02*
X152561315Y-80356533D01*
X152561315Y-80356533D02*
X152394649Y-80356533D01*
X152394649Y-80356533D02*
X152327982Y-80389866D01*
X152327982Y-80389866D02*
X152294649Y-80423200D01*
X152294649Y-80423200D02*
X152261315Y-80489866D01*
X152261315Y-80489866D02*
X152261315Y-80556533D01*
X152261315Y-80556533D02*
X152294649Y-80656533D01*
X152294649Y-80656533D02*
X152694649Y-81056533D01*
X152694649Y-81056533D02*
X152261315Y-81056533D01*
X166571316Y-93476533D02*
X166904649Y-93476533D01*
X166904649Y-93476533D02*
X166937982Y-93809866D01*
X166937982Y-93809866D02*
X166904649Y-93776533D01*
X166904649Y-93776533D02*
X166837982Y-93743200D01*
X166837982Y-93743200D02*
X166671316Y-93743200D01*
X166671316Y-93743200D02*
X166604649Y-93776533D01*
X166604649Y-93776533D02*
X166571316Y-93809866D01*
X166571316Y-93809866D02*
X166537982Y-93876533D01*
X166537982Y-93876533D02*
X166537982Y-94043200D01*
X166537982Y-94043200D02*
X166571316Y-94109866D01*
X166571316Y-94109866D02*
X166604649Y-94143200D01*
X166604649Y-94143200D02*
X166671316Y-94176533D01*
X166671316Y-94176533D02*
X166837982Y-94176533D01*
X166837982Y-94176533D02*
X166904649Y-94143200D01*
X166904649Y-94143200D02*
X166937982Y-94109866D01*
X166337982Y-93476533D02*
X166104649Y-94176533D01*
X166104649Y-94176533D02*
X165871315Y-93476533D01*
X135304649Y-75196533D02*
X135537982Y-74863200D01*
X135704649Y-75196533D02*
X135704649Y-74496533D01*
X135704649Y-74496533D02*
X135437982Y-74496533D01*
X135437982Y-74496533D02*
X135371316Y-74529866D01*
X135371316Y-74529866D02*
X135337982Y-74563200D01*
X135337982Y-74563200D02*
X135304649Y-74629866D01*
X135304649Y-74629866D02*
X135304649Y-74729866D01*
X135304649Y-74729866D02*
X135337982Y-74796533D01*
X135337982Y-74796533D02*
X135371316Y-74829866D01*
X135371316Y-74829866D02*
X135437982Y-74863200D01*
X135437982Y-74863200D02*
X135704649Y-74863200D01*
X134637982Y-75196533D02*
X135037982Y-75196533D01*
X134837982Y-75196533D02*
X134837982Y-74496533D01*
X134837982Y-74496533D02*
X134904649Y-74596533D01*
X134904649Y-74596533D02*
X134971316Y-74663200D01*
X134971316Y-74663200D02*
X135037982Y-74696533D01*
X135704649Y-85666533D02*
X135704649Y-84966533D01*
X135704649Y-84966533D02*
X135471316Y-85466533D01*
X135471316Y-85466533D02*
X135237982Y-84966533D01*
X135237982Y-84966533D02*
X135237982Y-85666533D01*
X134971316Y-84966533D02*
X134537982Y-84966533D01*
X134537982Y-84966533D02*
X134771316Y-85233200D01*
X134771316Y-85233200D02*
X134671316Y-85233200D01*
X134671316Y-85233200D02*
X134604649Y-85266533D01*
X134604649Y-85266533D02*
X134571316Y-85299866D01*
X134571316Y-85299866D02*
X134537982Y-85366533D01*
X134537982Y-85366533D02*
X134537982Y-85533200D01*
X134537982Y-85533200D02*
X134571316Y-85599866D01*
X134571316Y-85599866D02*
X134604649Y-85633200D01*
X134604649Y-85633200D02*
X134671316Y-85666533D01*
X134671316Y-85666533D02*
X134871316Y-85666533D01*
X134871316Y-85666533D02*
X134937982Y-85633200D01*
X134937982Y-85633200D02*
X134971316Y-85599866D01*
X159834649Y-76949866D02*
X159867982Y-76983200D01*
X159867982Y-76983200D02*
X159967982Y-77016533D01*
X159967982Y-77016533D02*
X160034649Y-77016533D01*
X160034649Y-77016533D02*
X160134649Y-76983200D01*
X160134649Y-76983200D02*
X160201316Y-76916533D01*
X160201316Y-76916533D02*
X160234649Y-76849866D01*
X160234649Y-76849866D02*
X160267982Y-76716533D01*
X160267982Y-76716533D02*
X160267982Y-76616533D01*
X160267982Y-76616533D02*
X160234649Y-76483200D01*
X160234649Y-76483200D02*
X160201316Y-76416533D01*
X160201316Y-76416533D02*
X160134649Y-76349866D01*
X160134649Y-76349866D02*
X160034649Y-76316533D01*
X160034649Y-76316533D02*
X159967982Y-76316533D01*
X159967982Y-76316533D02*
X159867982Y-76349866D01*
X159867982Y-76349866D02*
X159834649Y-76383200D01*
X159201316Y-77016533D02*
X159534649Y-77016533D01*
X159534649Y-77016533D02*
X159534649Y-76316533D01*
X158967982Y-77016533D02*
X158967982Y-76316533D01*
X158567982Y-77016533D02*
X158867982Y-76616533D01*
X158567982Y-76316533D02*
X158967982Y-76716533D01*
X157901315Y-77016533D02*
X158301315Y-77016533D01*
X158101315Y-77016533D02*
X158101315Y-76316533D01*
X158101315Y-76316533D02*
X158167982Y-76416533D01*
X158167982Y-76416533D02*
X158234649Y-76483200D01*
X158234649Y-76483200D02*
X158301315Y-76516533D01*
X157237982Y-81013200D02*
X157137982Y-81046533D01*
X157137982Y-81046533D02*
X156971316Y-81046533D01*
X156971316Y-81046533D02*
X156904649Y-81013200D01*
X156904649Y-81013200D02*
X156871316Y-80979866D01*
X156871316Y-80979866D02*
X156837982Y-80913200D01*
X156837982Y-80913200D02*
X156837982Y-80846533D01*
X156837982Y-80846533D02*
X156871316Y-80779866D01*
X156871316Y-80779866D02*
X156904649Y-80746533D01*
X156904649Y-80746533D02*
X156971316Y-80713200D01*
X156971316Y-80713200D02*
X157104649Y-80679866D01*
X157104649Y-80679866D02*
X157171316Y-80646533D01*
X157171316Y-80646533D02*
X157204649Y-80613200D01*
X157204649Y-80613200D02*
X157237982Y-80546533D01*
X157237982Y-80546533D02*
X157237982Y-80479866D01*
X157237982Y-80479866D02*
X157204649Y-80413200D01*
X157204649Y-80413200D02*
X157171316Y-80379866D01*
X157171316Y-80379866D02*
X157104649Y-80346533D01*
X157104649Y-80346533D02*
X156937982Y-80346533D01*
X156937982Y-80346533D02*
X156837982Y-80379866D01*
X156537982Y-81046533D02*
X156537982Y-80346533D01*
X156537982Y-80346533D02*
X156371315Y-80346533D01*
X156371315Y-80346533D02*
X156271315Y-80379866D01*
X156271315Y-80379866D02*
X156204649Y-80446533D01*
X156204649Y-80446533D02*
X156171315Y-80513200D01*
X156171315Y-80513200D02*
X156137982Y-80646533D01*
X156137982Y-80646533D02*
X156137982Y-80746533D01*
X156137982Y-80746533D02*
X156171315Y-80879866D01*
X156171315Y-80879866D02*
X156204649Y-80946533D01*
X156204649Y-80946533D02*
X156271315Y-81013200D01*
X156271315Y-81013200D02*
X156371315Y-81046533D01*
X156371315Y-81046533D02*
X156537982Y-81046533D01*
X155871315Y-80846533D02*
X155537982Y-80846533D01*
X155937982Y-81046533D02*
X155704649Y-80346533D01*
X155704649Y-80346533D02*
X155471315Y-81046533D01*
X154871315Y-81046533D02*
X155271315Y-81046533D01*
X155071315Y-81046533D02*
X155071315Y-80346533D01*
X155071315Y-80346533D02*
X155137982Y-80446533D01*
X155137982Y-80446533D02*
X155204649Y-80513200D01*
X155204649Y-80513200D02*
X155271315Y-80546533D01*
X134621316Y-93616533D02*
X134954649Y-93616533D01*
X134954649Y-93616533D02*
X134987982Y-93949866D01*
X134987982Y-93949866D02*
X134954649Y-93916533D01*
X134954649Y-93916533D02*
X134887982Y-93883200D01*
X134887982Y-93883200D02*
X134721316Y-93883200D01*
X134721316Y-93883200D02*
X134654649Y-93916533D01*
X134654649Y-93916533D02*
X134621316Y-93949866D01*
X134621316Y-93949866D02*
X134587982Y-94016533D01*
X134587982Y-94016533D02*
X134587982Y-94183200D01*
X134587982Y-94183200D02*
X134621316Y-94249866D01*
X134621316Y-94249866D02*
X134654649Y-94283200D01*
X134654649Y-94283200D02*
X134721316Y-94316533D01*
X134721316Y-94316533D02*
X134887982Y-94316533D01*
X134887982Y-94316533D02*
X134954649Y-94283200D01*
X134954649Y-94283200D02*
X134987982Y-94249866D01*
X134387982Y-93616533D02*
X134154649Y-94316533D01*
X134154649Y-94316533D02*
X133921315Y-93616533D01*
X153584649Y-78969866D02*
X153617982Y-79003200D01*
X153617982Y-79003200D02*
X153717982Y-79036533D01*
X153717982Y-79036533D02*
X153784649Y-79036533D01*
X153784649Y-79036533D02*
X153884649Y-79003200D01*
X153884649Y-79003200D02*
X153951316Y-78936533D01*
X153951316Y-78936533D02*
X153984649Y-78869866D01*
X153984649Y-78869866D02*
X154017982Y-78736533D01*
X154017982Y-78736533D02*
X154017982Y-78636533D01*
X154017982Y-78636533D02*
X153984649Y-78503200D01*
X153984649Y-78503200D02*
X153951316Y-78436533D01*
X153951316Y-78436533D02*
X153884649Y-78369866D01*
X153884649Y-78369866D02*
X153784649Y-78336533D01*
X153784649Y-78336533D02*
X153717982Y-78336533D01*
X153717982Y-78336533D02*
X153617982Y-78369866D01*
X153617982Y-78369866D02*
X153584649Y-78403200D01*
X152951316Y-79036533D02*
X153284649Y-79036533D01*
X153284649Y-79036533D02*
X153284649Y-78336533D01*
X152717982Y-79036533D02*
X152717982Y-78336533D01*
X152317982Y-79036533D02*
X152617982Y-78636533D01*
X152317982Y-78336533D02*
X152717982Y-78736533D01*
X152051315Y-78403200D02*
X152017982Y-78369866D01*
X152017982Y-78369866D02*
X151951315Y-78336533D01*
X151951315Y-78336533D02*
X151784649Y-78336533D01*
X151784649Y-78336533D02*
X151717982Y-78369866D01*
X151717982Y-78369866D02*
X151684649Y-78403200D01*
X151684649Y-78403200D02*
X151651315Y-78469866D01*
X151651315Y-78469866D02*
X151651315Y-78536533D01*
X151651315Y-78536533D02*
X151684649Y-78636533D01*
X151684649Y-78636533D02*
X152084649Y-79036533D01*
X152084649Y-79036533D02*
X151651315Y-79036533D01*
X135337982Y-89989866D02*
X135404649Y-89956533D01*
X135404649Y-89956533D02*
X135504649Y-89956533D01*
X135504649Y-89956533D02*
X135604649Y-89989866D01*
X135604649Y-89989866D02*
X135671316Y-90056533D01*
X135671316Y-90056533D02*
X135704649Y-90123200D01*
X135704649Y-90123200D02*
X135737982Y-90256533D01*
X135737982Y-90256533D02*
X135737982Y-90356533D01*
X135737982Y-90356533D02*
X135704649Y-90489866D01*
X135704649Y-90489866D02*
X135671316Y-90556533D01*
X135671316Y-90556533D02*
X135604649Y-90623200D01*
X135604649Y-90623200D02*
X135504649Y-90656533D01*
X135504649Y-90656533D02*
X135437982Y-90656533D01*
X135437982Y-90656533D02*
X135337982Y-90623200D01*
X135337982Y-90623200D02*
X135304649Y-90589866D01*
X135304649Y-90589866D02*
X135304649Y-90356533D01*
X135304649Y-90356533D02*
X135437982Y-90356533D01*
X135004649Y-90656533D02*
X135004649Y-89956533D01*
X135004649Y-89956533D02*
X134604649Y-90656533D01*
X134604649Y-90656533D02*
X134604649Y-89956533D01*
X134271316Y-90656533D02*
X134271316Y-89956533D01*
X134271316Y-89956533D02*
X134104649Y-89956533D01*
X134104649Y-89956533D02*
X134004649Y-89989866D01*
X134004649Y-89989866D02*
X133937983Y-90056533D01*
X133937983Y-90056533D02*
X133904649Y-90123200D01*
X133904649Y-90123200D02*
X133871316Y-90256533D01*
X133871316Y-90256533D02*
X133871316Y-90356533D01*
X133871316Y-90356533D02*
X133904649Y-90489866D01*
X133904649Y-90489866D02*
X133937983Y-90556533D01*
X133937983Y-90556533D02*
X134004649Y-90623200D01*
X134004649Y-90623200D02*
X134104649Y-90656533D01*
X134104649Y-90656533D02*
X134271316Y-90656533D01*
X156847982Y-82279866D02*
X156914649Y-82246533D01*
X156914649Y-82246533D02*
X157014649Y-82246533D01*
X157014649Y-82246533D02*
X157114649Y-82279866D01*
X157114649Y-82279866D02*
X157181316Y-82346533D01*
X157181316Y-82346533D02*
X157214649Y-82413200D01*
X157214649Y-82413200D02*
X157247982Y-82546533D01*
X157247982Y-82546533D02*
X157247982Y-82646533D01*
X157247982Y-82646533D02*
X157214649Y-82779866D01*
X157214649Y-82779866D02*
X157181316Y-82846533D01*
X157181316Y-82846533D02*
X157114649Y-82913200D01*
X157114649Y-82913200D02*
X157014649Y-82946533D01*
X157014649Y-82946533D02*
X156947982Y-82946533D01*
X156947982Y-82946533D02*
X156847982Y-82913200D01*
X156847982Y-82913200D02*
X156814649Y-82879866D01*
X156814649Y-82879866D02*
X156814649Y-82646533D01*
X156814649Y-82646533D02*
X156947982Y-82646533D01*
X156514649Y-82946533D02*
X156514649Y-82246533D01*
X156514649Y-82246533D02*
X156114649Y-82946533D01*
X156114649Y-82946533D02*
X156114649Y-82246533D01*
X155781316Y-82946533D02*
X155781316Y-82246533D01*
X155781316Y-82246533D02*
X155614649Y-82246533D01*
X155614649Y-82246533D02*
X155514649Y-82279866D01*
X155514649Y-82279866D02*
X155447983Y-82346533D01*
X155447983Y-82346533D02*
X155414649Y-82413200D01*
X155414649Y-82413200D02*
X155381316Y-82546533D01*
X155381316Y-82546533D02*
X155381316Y-82646533D01*
X155381316Y-82646533D02*
X155414649Y-82779866D01*
X155414649Y-82779866D02*
X155447983Y-82846533D01*
X155447983Y-82846533D02*
X155514649Y-82913200D01*
X155514649Y-82913200D02*
X155614649Y-82946533D01*
X155614649Y-82946533D02*
X155781316Y-82946533D01*
X135357982Y-77139866D02*
X135424649Y-77106533D01*
X135424649Y-77106533D02*
X135524649Y-77106533D01*
X135524649Y-77106533D02*
X135624649Y-77139866D01*
X135624649Y-77139866D02*
X135691316Y-77206533D01*
X135691316Y-77206533D02*
X135724649Y-77273200D01*
X135724649Y-77273200D02*
X135757982Y-77406533D01*
X135757982Y-77406533D02*
X135757982Y-77506533D01*
X135757982Y-77506533D02*
X135724649Y-77639866D01*
X135724649Y-77639866D02*
X135691316Y-77706533D01*
X135691316Y-77706533D02*
X135624649Y-77773200D01*
X135624649Y-77773200D02*
X135524649Y-77806533D01*
X135524649Y-77806533D02*
X135457982Y-77806533D01*
X135457982Y-77806533D02*
X135357982Y-77773200D01*
X135357982Y-77773200D02*
X135324649Y-77739866D01*
X135324649Y-77739866D02*
X135324649Y-77506533D01*
X135324649Y-77506533D02*
X135457982Y-77506533D01*
X135024649Y-77806533D02*
X135024649Y-77106533D01*
X135024649Y-77106533D02*
X134624649Y-77806533D01*
X134624649Y-77806533D02*
X134624649Y-77106533D01*
X134291316Y-77806533D02*
X134291316Y-77106533D01*
X134291316Y-77106533D02*
X134124649Y-77106533D01*
X134124649Y-77106533D02*
X134024649Y-77139866D01*
X134024649Y-77139866D02*
X133957983Y-77206533D01*
X133957983Y-77206533D02*
X133924649Y-77273200D01*
X133924649Y-77273200D02*
X133891316Y-77406533D01*
X133891316Y-77406533D02*
X133891316Y-77506533D01*
X133891316Y-77506533D02*
X133924649Y-77639866D01*
X133924649Y-77639866D02*
X133957983Y-77706533D01*
X133957983Y-77706533D02*
X134024649Y-77773200D01*
X134024649Y-77773200D02*
X134124649Y-77806533D01*
X134124649Y-77806533D02*
X134291316Y-77806533D01*
X135704649Y-84396533D02*
X135704649Y-83696533D01*
X135704649Y-83696533D02*
X135471316Y-84196533D01*
X135471316Y-84196533D02*
X135237982Y-83696533D01*
X135237982Y-83696533D02*
X135237982Y-84396533D01*
X134937982Y-83763200D02*
X134904649Y-83729866D01*
X134904649Y-83729866D02*
X134837982Y-83696533D01*
X134837982Y-83696533D02*
X134671316Y-83696533D01*
X134671316Y-83696533D02*
X134604649Y-83729866D01*
X134604649Y-83729866D02*
X134571316Y-83763200D01*
X134571316Y-83763200D02*
X134537982Y-83829866D01*
X134537982Y-83829866D02*
X134537982Y-83896533D01*
X134537982Y-83896533D02*
X134571316Y-83996533D01*
X134571316Y-83996533D02*
X134971316Y-84396533D01*
X134971316Y-84396533D02*
X134537982Y-84396533D01*
X157359649Y-68581533D02*
X157359649Y-67881533D01*
X157359649Y-67881533D02*
X157192982Y-67881533D01*
X157192982Y-67881533D02*
X157092982Y-67914866D01*
X157092982Y-67914866D02*
X157026316Y-67981533D01*
X157026316Y-67981533D02*
X156992982Y-68048200D01*
X156992982Y-68048200D02*
X156959649Y-68181533D01*
X156959649Y-68181533D02*
X156959649Y-68281533D01*
X156959649Y-68281533D02*
X156992982Y-68414866D01*
X156992982Y-68414866D02*
X157026316Y-68481533D01*
X157026316Y-68481533D02*
X157092982Y-68548200D01*
X157092982Y-68548200D02*
X157192982Y-68581533D01*
X157192982Y-68581533D02*
X157359649Y-68581533D01*
X156659649Y-68581533D02*
X156659649Y-67881533D01*
X156192983Y-67881533D02*
X156059649Y-67881533D01*
X156059649Y-67881533D02*
X155992983Y-67914866D01*
X155992983Y-67914866D02*
X155926316Y-67981533D01*
X155926316Y-67981533D02*
X155892983Y-68114866D01*
X155892983Y-68114866D02*
X155892983Y-68348200D01*
X155892983Y-68348200D02*
X155926316Y-68481533D01*
X155926316Y-68481533D02*
X155992983Y-68548200D01*
X155992983Y-68548200D02*
X156059649Y-68581533D01*
X156059649Y-68581533D02*
X156192983Y-68581533D01*
X156192983Y-68581533D02*
X156259649Y-68548200D01*
X156259649Y-68548200D02*
X156326316Y-68481533D01*
X156326316Y-68481533D02*
X156359649Y-68348200D01*
X156359649Y-68348200D02*
X156359649Y-68114866D01*
X156359649Y-68114866D02*
X156326316Y-67981533D01*
X156326316Y-67981533D02*
X156259649Y-67914866D01*
X156259649Y-67914866D02*
X156192983Y-67881533D01*
X159901316Y-82236533D02*
X160234649Y-82236533D01*
X160234649Y-82236533D02*
X160267982Y-82569866D01*
X160267982Y-82569866D02*
X160234649Y-82536533D01*
X160234649Y-82536533D02*
X160167982Y-82503200D01*
X160167982Y-82503200D02*
X160001316Y-82503200D01*
X160001316Y-82503200D02*
X159934649Y-82536533D01*
X159934649Y-82536533D02*
X159901316Y-82569866D01*
X159901316Y-82569866D02*
X159867982Y-82636533D01*
X159867982Y-82636533D02*
X159867982Y-82803200D01*
X159867982Y-82803200D02*
X159901316Y-82869866D01*
X159901316Y-82869866D02*
X159934649Y-82903200D01*
X159934649Y-82903200D02*
X160001316Y-82936533D01*
X160001316Y-82936533D02*
X160167982Y-82936533D01*
X160167982Y-82936533D02*
X160234649Y-82903200D01*
X160234649Y-82903200D02*
X160267982Y-82869866D01*
X159667982Y-82236533D02*
X159434649Y-82936533D01*
X159434649Y-82936533D02*
X159201315Y-82236533D01*
X166694649Y-66906533D02*
X166294649Y-66906533D01*
X166494649Y-67606533D02*
X166494649Y-66906533D01*
X165761316Y-66906533D02*
X165894649Y-66906533D01*
X165894649Y-66906533D02*
X165961316Y-66939866D01*
X165961316Y-66939866D02*
X165994649Y-66973200D01*
X165994649Y-66973200D02*
X166061316Y-67073200D01*
X166061316Y-67073200D02*
X166094649Y-67206533D01*
X166094649Y-67206533D02*
X166094649Y-67473200D01*
X166094649Y-67473200D02*
X166061316Y-67539866D01*
X166061316Y-67539866D02*
X166027983Y-67573200D01*
X166027983Y-67573200D02*
X165961316Y-67606533D01*
X165961316Y-67606533D02*
X165827983Y-67606533D01*
X165827983Y-67606533D02*
X165761316Y-67573200D01*
X165761316Y-67573200D02*
X165727983Y-67539866D01*
X165727983Y-67539866D02*
X165694649Y-67473200D01*
X165694649Y-67473200D02*
X165694649Y-67306533D01*
X165694649Y-67306533D02*
X165727983Y-67239866D01*
X165727983Y-67239866D02*
X165761316Y-67206533D01*
X165761316Y-67206533D02*
X165827983Y-67173200D01*
X165827983Y-67173200D02*
X165961316Y-67173200D01*
X165961316Y-67173200D02*
X166027983Y-67206533D01*
X166027983Y-67206533D02*
X166061316Y-67239866D01*
X166061316Y-67239866D02*
X166094649Y-67306533D01*
X166564649Y-98936533D02*
X166164649Y-98936533D01*
X166364649Y-99636533D02*
X166364649Y-98936533D01*
X165631316Y-99169866D02*
X165631316Y-99636533D01*
X165797983Y-98903200D02*
X165964649Y-99403200D01*
X165964649Y-99403200D02*
X165531316Y-99403200D01*
X166337982Y-69989866D02*
X166404649Y-69956533D01*
X166404649Y-69956533D02*
X166504649Y-69956533D01*
X166504649Y-69956533D02*
X166604649Y-69989866D01*
X166604649Y-69989866D02*
X166671316Y-70056533D01*
X166671316Y-70056533D02*
X166704649Y-70123200D01*
X166704649Y-70123200D02*
X166737982Y-70256533D01*
X166737982Y-70256533D02*
X166737982Y-70356533D01*
X166737982Y-70356533D02*
X166704649Y-70489866D01*
X166704649Y-70489866D02*
X166671316Y-70556533D01*
X166671316Y-70556533D02*
X166604649Y-70623200D01*
X166604649Y-70623200D02*
X166504649Y-70656533D01*
X166504649Y-70656533D02*
X166437982Y-70656533D01*
X166437982Y-70656533D02*
X166337982Y-70623200D01*
X166337982Y-70623200D02*
X166304649Y-70589866D01*
X166304649Y-70589866D02*
X166304649Y-70356533D01*
X166304649Y-70356533D02*
X166437982Y-70356533D01*
X157214649Y-74906533D02*
X157214649Y-74206533D01*
X157214649Y-74206533D02*
X156947982Y-74206533D01*
X156947982Y-74206533D02*
X156881316Y-74239866D01*
X156881316Y-74239866D02*
X156847982Y-74273200D01*
X156847982Y-74273200D02*
X156814649Y-74339866D01*
X156814649Y-74339866D02*
X156814649Y-74439866D01*
X156814649Y-74439866D02*
X156847982Y-74506533D01*
X156847982Y-74506533D02*
X156881316Y-74539866D01*
X156881316Y-74539866D02*
X156947982Y-74573200D01*
X156947982Y-74573200D02*
X157214649Y-74573200D01*
X156547982Y-74706533D02*
X156214649Y-74706533D01*
X156614649Y-74906533D02*
X156381316Y-74206533D01*
X156381316Y-74206533D02*
X156147982Y-74906533D01*
X155547982Y-74906533D02*
X155947982Y-74906533D01*
X155747982Y-74906533D02*
X155747982Y-74206533D01*
X155747982Y-74206533D02*
X155814649Y-74306533D01*
X155814649Y-74306533D02*
X155881316Y-74373200D01*
X155881316Y-74373200D02*
X155947982Y-74406533D01*
X155281315Y-74273200D02*
X155247982Y-74239866D01*
X155247982Y-74239866D02*
X155181315Y-74206533D01*
X155181315Y-74206533D02*
X155014649Y-74206533D01*
X155014649Y-74206533D02*
X154947982Y-74239866D01*
X154947982Y-74239866D02*
X154914649Y-74273200D01*
X154914649Y-74273200D02*
X154881315Y-74339866D01*
X154881315Y-74339866D02*
X154881315Y-74406533D01*
X154881315Y-74406533D02*
X154914649Y-74506533D01*
X154914649Y-74506533D02*
X155314649Y-74906533D01*
X155314649Y-74906533D02*
X154881315Y-74906533D01*
X147776316Y-87694866D02*
X148009649Y-87694866D01*
X148009649Y-88061533D02*
X148009649Y-87361533D01*
X148009649Y-87361533D02*
X147676316Y-87361533D01*
X147009649Y-87994866D02*
X147042982Y-88028200D01*
X147042982Y-88028200D02*
X147142982Y-88061533D01*
X147142982Y-88061533D02*
X147209649Y-88061533D01*
X147209649Y-88061533D02*
X147309649Y-88028200D01*
X147309649Y-88028200D02*
X147376316Y-87961533D01*
X147376316Y-87961533D02*
X147409649Y-87894866D01*
X147409649Y-87894866D02*
X147442982Y-87761533D01*
X147442982Y-87761533D02*
X147442982Y-87661533D01*
X147442982Y-87661533D02*
X147409649Y-87528200D01*
X147409649Y-87528200D02*
X147376316Y-87461533D01*
X147376316Y-87461533D02*
X147309649Y-87394866D01*
X147309649Y-87394866D02*
X147209649Y-87361533D01*
X147209649Y-87361533D02*
X147142982Y-87361533D01*
X147142982Y-87361533D02*
X147042982Y-87394866D01*
X147042982Y-87394866D02*
X147009649Y-87428200D01*
X146876316Y-88128200D02*
X146342982Y-88128200D01*
X145942983Y-87694866D02*
X146176316Y-87694866D01*
X146176316Y-88061533D02*
X146176316Y-87361533D01*
X146176316Y-87361533D02*
X145842983Y-87361533D01*
X145276316Y-87594866D02*
X145276316Y-88061533D01*
X145442983Y-87328200D02*
X145609649Y-87828200D01*
X145609649Y-87828200D02*
X145176316Y-87828200D01*
X144776316Y-87361533D02*
X144709649Y-87361533D01*
X144709649Y-87361533D02*
X144642982Y-87394866D01*
X144642982Y-87394866D02*
X144609649Y-87428200D01*
X144609649Y-87428200D02*
X144576316Y-87494866D01*
X144576316Y-87494866D02*
X144542982Y-87628200D01*
X144542982Y-87628200D02*
X144542982Y-87794866D01*
X144542982Y-87794866D02*
X144576316Y-87928200D01*
X144576316Y-87928200D02*
X144609649Y-87994866D01*
X144609649Y-87994866D02*
X144642982Y-88028200D01*
X144642982Y-88028200D02*
X144709649Y-88061533D01*
X144709649Y-88061533D02*
X144776316Y-88061533D01*
X144776316Y-88061533D02*
X144842982Y-88028200D01*
X144842982Y-88028200D02*
X144876316Y-87994866D01*
X144876316Y-87994866D02*
X144909649Y-87928200D01*
X144909649Y-87928200D02*
X144942982Y-87794866D01*
X144942982Y-87794866D02*
X144942982Y-87628200D01*
X144942982Y-87628200D02*
X144909649Y-87494866D01*
X144909649Y-87494866D02*
X144876316Y-87428200D01*
X144876316Y-87428200D02*
X144842982Y-87394866D01*
X144842982Y-87394866D02*
X144776316Y-87361533D01*
X143909649Y-87361533D02*
X144242982Y-87361533D01*
X144242982Y-87361533D02*
X144276315Y-87694866D01*
X144276315Y-87694866D02*
X144242982Y-87661533D01*
X144242982Y-87661533D02*
X144176315Y-87628200D01*
X144176315Y-87628200D02*
X144009649Y-87628200D01*
X144009649Y-87628200D02*
X143942982Y-87661533D01*
X143942982Y-87661533D02*
X143909649Y-87694866D01*
X143909649Y-87694866D02*
X143876315Y-87761533D01*
X143876315Y-87761533D02*
X143876315Y-87928200D01*
X143876315Y-87928200D02*
X143909649Y-87994866D01*
X143909649Y-87994866D02*
X143942982Y-88028200D01*
X143942982Y-88028200D02*
X144009649Y-88061533D01*
X144009649Y-88061533D02*
X144176315Y-88061533D01*
X144176315Y-88061533D02*
X144242982Y-88028200D01*
X144242982Y-88028200D02*
X144276315Y-87994866D01*
X143742982Y-88128200D02*
X143209648Y-88128200D01*
X143042982Y-88061533D02*
X143042982Y-87361533D01*
X143042982Y-87694866D02*
X142642982Y-87694866D01*
X142642982Y-88061533D02*
X142642982Y-87361533D01*
X142376316Y-87361533D02*
X142209649Y-88061533D01*
X142209649Y-88061533D02*
X142076316Y-87561533D01*
X142076316Y-87561533D02*
X141942982Y-88061533D01*
X141942982Y-88061533D02*
X141776316Y-87361533D01*
X135704649Y-86946533D02*
X135704649Y-86246533D01*
X135704649Y-86246533D02*
X135471316Y-86746533D01*
X135471316Y-86746533D02*
X135237982Y-86246533D01*
X135237982Y-86246533D02*
X135237982Y-86946533D01*
X134604649Y-86479866D02*
X134604649Y-86946533D01*
X134771316Y-86213200D02*
X134937982Y-86713200D01*
X134937982Y-86713200D02*
X134504649Y-86713200D01*
X156076316Y-95191533D02*
X155642982Y-95191533D01*
X155642982Y-95191533D02*
X155876316Y-95458200D01*
X155876316Y-95458200D02*
X155776316Y-95458200D01*
X155776316Y-95458200D02*
X155709649Y-95491533D01*
X155709649Y-95491533D02*
X155676316Y-95524866D01*
X155676316Y-95524866D02*
X155642982Y-95591533D01*
X155642982Y-95591533D02*
X155642982Y-95758200D01*
X155642982Y-95758200D02*
X155676316Y-95824866D01*
X155676316Y-95824866D02*
X155709649Y-95858200D01*
X155709649Y-95858200D02*
X155776316Y-95891533D01*
X155776316Y-95891533D02*
X155976316Y-95891533D01*
X155976316Y-95891533D02*
X156042982Y-95858200D01*
X156042982Y-95858200D02*
X156076316Y-95824866D01*
X155442982Y-95191533D02*
X155209649Y-95891533D01*
X155209649Y-95891533D02*
X154976315Y-95191533D01*
X154809649Y-95191533D02*
X154376315Y-95191533D01*
X154376315Y-95191533D02*
X154609649Y-95458200D01*
X154609649Y-95458200D02*
X154509649Y-95458200D01*
X154509649Y-95458200D02*
X154442982Y-95491533D01*
X154442982Y-95491533D02*
X154409649Y-95524866D01*
X154409649Y-95524866D02*
X154376315Y-95591533D01*
X154376315Y-95591533D02*
X154376315Y-95758200D01*
X154376315Y-95758200D02*
X154409649Y-95824866D01*
X154409649Y-95824866D02*
X154442982Y-95858200D01*
X154442982Y-95858200D02*
X154509649Y-95891533D01*
X154509649Y-95891533D02*
X154709649Y-95891533D01*
X154709649Y-95891533D02*
X154776315Y-95858200D01*
X154776315Y-95858200D02*
X154809649Y-95824866D01*
X135304649Y-88099866D02*
X135337982Y-88133200D01*
X135337982Y-88133200D02*
X135437982Y-88166533D01*
X135437982Y-88166533D02*
X135504649Y-88166533D01*
X135504649Y-88166533D02*
X135604649Y-88133200D01*
X135604649Y-88133200D02*
X135671316Y-88066533D01*
X135671316Y-88066533D02*
X135704649Y-87999866D01*
X135704649Y-87999866D02*
X135737982Y-87866533D01*
X135737982Y-87866533D02*
X135737982Y-87766533D01*
X135737982Y-87766533D02*
X135704649Y-87633200D01*
X135704649Y-87633200D02*
X135671316Y-87566533D01*
X135671316Y-87566533D02*
X135604649Y-87499866D01*
X135604649Y-87499866D02*
X135504649Y-87466533D01*
X135504649Y-87466533D02*
X135437982Y-87466533D01*
X135437982Y-87466533D02*
X135337982Y-87499866D01*
X135337982Y-87499866D02*
X135304649Y-87533200D01*
X135004649Y-87466533D02*
X135004649Y-88033200D01*
X135004649Y-88033200D02*
X134971316Y-88099866D01*
X134971316Y-88099866D02*
X134937982Y-88133200D01*
X134937982Y-88133200D02*
X134871316Y-88166533D01*
X134871316Y-88166533D02*
X134737982Y-88166533D01*
X134737982Y-88166533D02*
X134671316Y-88133200D01*
X134671316Y-88133200D02*
X134637982Y-88099866D01*
X134637982Y-88099866D02*
X134604649Y-88033200D01*
X134604649Y-88033200D02*
X134604649Y-87466533D01*
X133871316Y-88166533D02*
X134104649Y-87833200D01*
X134271316Y-88166533D02*
X134271316Y-87466533D01*
X134271316Y-87466533D02*
X134004649Y-87466533D01*
X134004649Y-87466533D02*
X133937983Y-87499866D01*
X133937983Y-87499866D02*
X133904649Y-87533200D01*
X133904649Y-87533200D02*
X133871316Y-87599866D01*
X133871316Y-87599866D02*
X133871316Y-87699866D01*
X133871316Y-87699866D02*
X133904649Y-87766533D01*
X133904649Y-87766533D02*
X133937983Y-87799866D01*
X133937983Y-87799866D02*
X134004649Y-87833200D01*
X134004649Y-87833200D02*
X134271316Y-87833200D01*
X157184649Y-77031533D02*
X157184649Y-76331533D01*
X157184649Y-76331533D02*
X156917982Y-76331533D01*
X156917982Y-76331533D02*
X156851316Y-76364866D01*
X156851316Y-76364866D02*
X156817982Y-76398200D01*
X156817982Y-76398200D02*
X156784649Y-76464866D01*
X156784649Y-76464866D02*
X156784649Y-76564866D01*
X156784649Y-76564866D02*
X156817982Y-76631533D01*
X156817982Y-76631533D02*
X156851316Y-76664866D01*
X156851316Y-76664866D02*
X156917982Y-76698200D01*
X156917982Y-76698200D02*
X157184649Y-76698200D01*
X156517982Y-76831533D02*
X156184649Y-76831533D01*
X156584649Y-77031533D02*
X156351316Y-76331533D01*
X156351316Y-76331533D02*
X156117982Y-77031533D01*
X155517982Y-77031533D02*
X155917982Y-77031533D01*
X155717982Y-77031533D02*
X155717982Y-76331533D01*
X155717982Y-76331533D02*
X155784649Y-76431533D01*
X155784649Y-76431533D02*
X155851316Y-76498200D01*
X155851316Y-76498200D02*
X155917982Y-76531533D01*
X154851315Y-77031533D02*
X155251315Y-77031533D01*
X155051315Y-77031533D02*
X155051315Y-76331533D01*
X155051315Y-76331533D02*
X155117982Y-76431533D01*
X155117982Y-76431533D02*
X155184649Y-76498200D01*
X155184649Y-76498200D02*
X155251315Y-76531533D01*
X135471316Y-91589866D02*
X135371316Y-91623200D01*
X135371316Y-91623200D02*
X135337982Y-91656533D01*
X135337982Y-91656533D02*
X135304649Y-91723200D01*
X135304649Y-91723200D02*
X135304649Y-91823200D01*
X135304649Y-91823200D02*
X135337982Y-91889866D01*
X135337982Y-91889866D02*
X135371316Y-91923200D01*
X135371316Y-91923200D02*
X135437982Y-91956533D01*
X135437982Y-91956533D02*
X135704649Y-91956533D01*
X135704649Y-91956533D02*
X135704649Y-91256533D01*
X135704649Y-91256533D02*
X135471316Y-91256533D01*
X135471316Y-91256533D02*
X135404649Y-91289866D01*
X135404649Y-91289866D02*
X135371316Y-91323200D01*
X135371316Y-91323200D02*
X135337982Y-91389866D01*
X135337982Y-91389866D02*
X135337982Y-91456533D01*
X135337982Y-91456533D02*
X135371316Y-91523200D01*
X135371316Y-91523200D02*
X135404649Y-91556533D01*
X135404649Y-91556533D02*
X135471316Y-91589866D01*
X135471316Y-91589866D02*
X135704649Y-91589866D01*
X135037982Y-91756533D02*
X134704649Y-91756533D01*
X135104649Y-91956533D02*
X134871316Y-91256533D01*
X134871316Y-91256533D02*
X134637982Y-91956533D01*
X134504649Y-91256533D02*
X134104649Y-91256533D01*
X134304649Y-91956533D02*
X134304649Y-91256533D01*
X147612982Y-90564866D02*
X147679649Y-90531533D01*
X147679649Y-90531533D02*
X147779649Y-90531533D01*
X147779649Y-90531533D02*
X147879649Y-90564866D01*
X147879649Y-90564866D02*
X147946316Y-90631533D01*
X147946316Y-90631533D02*
X147979649Y-90698200D01*
X147979649Y-90698200D02*
X148012982Y-90831533D01*
X148012982Y-90831533D02*
X148012982Y-90931533D01*
X148012982Y-90931533D02*
X147979649Y-91064866D01*
X147979649Y-91064866D02*
X147946316Y-91131533D01*
X147946316Y-91131533D02*
X147879649Y-91198200D01*
X147879649Y-91198200D02*
X147779649Y-91231533D01*
X147779649Y-91231533D02*
X147712982Y-91231533D01*
X147712982Y-91231533D02*
X147612982Y-91198200D01*
X147612982Y-91198200D02*
X147579649Y-91164866D01*
X147579649Y-91164866D02*
X147579649Y-90931533D01*
X147579649Y-90931533D02*
X147712982Y-90931533D01*
X147279649Y-91231533D02*
X147279649Y-90764866D01*
X147279649Y-90531533D02*
X147312982Y-90564866D01*
X147312982Y-90564866D02*
X147279649Y-90598200D01*
X147279649Y-90598200D02*
X147246316Y-90564866D01*
X147246316Y-90564866D02*
X147279649Y-90531533D01*
X147279649Y-90531533D02*
X147279649Y-90598200D01*
X147046316Y-90764866D02*
X146779649Y-90764866D01*
X146946316Y-90531533D02*
X146946316Y-91131533D01*
X146946316Y-91131533D02*
X146912983Y-91198200D01*
X146912983Y-91198200D02*
X146846316Y-91231533D01*
X146846316Y-91231533D02*
X146779649Y-91231533D01*
X146546316Y-91231533D02*
X146546316Y-90531533D01*
X146246316Y-91231533D02*
X146246316Y-90864866D01*
X146246316Y-90864866D02*
X146279649Y-90798200D01*
X146279649Y-90798200D02*
X146346316Y-90764866D01*
X146346316Y-90764866D02*
X146446316Y-90764866D01*
X146446316Y-90764866D02*
X146512983Y-90798200D01*
X146512983Y-90798200D02*
X146546316Y-90831533D01*
X145612983Y-90764866D02*
X145612983Y-91231533D01*
X145912983Y-90764866D02*
X145912983Y-91131533D01*
X145912983Y-91131533D02*
X145879650Y-91198200D01*
X145879650Y-91198200D02*
X145812983Y-91231533D01*
X145812983Y-91231533D02*
X145712983Y-91231533D01*
X145712983Y-91231533D02*
X145646316Y-91198200D01*
X145646316Y-91198200D02*
X145612983Y-91164866D01*
X145279650Y-91231533D02*
X145279650Y-90531533D01*
X145279650Y-90798200D02*
X145212983Y-90764866D01*
X145212983Y-90764866D02*
X145079650Y-90764866D01*
X145079650Y-90764866D02*
X145012983Y-90798200D01*
X145012983Y-90798200D02*
X144979650Y-90831533D01*
X144979650Y-90831533D02*
X144946317Y-90898200D01*
X144946317Y-90898200D02*
X144946317Y-91098200D01*
X144946317Y-91098200D02*
X144979650Y-91164866D01*
X144979650Y-91164866D02*
X145012983Y-91198200D01*
X145012983Y-91198200D02*
X145079650Y-91231533D01*
X145079650Y-91231533D02*
X145212983Y-91231533D01*
X145212983Y-91231533D02*
X145279650Y-91198200D01*
X144646317Y-91164866D02*
X144612984Y-91198200D01*
X144612984Y-91198200D02*
X144646317Y-91231533D01*
X144646317Y-91231533D02*
X144679650Y-91198200D01*
X144679650Y-91198200D02*
X144646317Y-91164866D01*
X144646317Y-91164866D02*
X144646317Y-91231533D01*
X144646317Y-90798200D02*
X144612984Y-90831533D01*
X144612984Y-90831533D02*
X144646317Y-90864866D01*
X144646317Y-90864866D02*
X144679650Y-90831533D01*
X144679650Y-90831533D02*
X144646317Y-90798200D01*
X144646317Y-90798200D02*
X144646317Y-90864866D01*
X143779651Y-90764866D02*
X143779651Y-91464866D01*
X143779651Y-90798200D02*
X143712984Y-90764866D01*
X143712984Y-90764866D02*
X143579651Y-90764866D01*
X143579651Y-90764866D02*
X143512984Y-90798200D01*
X143512984Y-90798200D02*
X143479651Y-90831533D01*
X143479651Y-90831533D02*
X143446318Y-90898200D01*
X143446318Y-90898200D02*
X143446318Y-91098200D01*
X143446318Y-91098200D02*
X143479651Y-91164866D01*
X143479651Y-91164866D02*
X143512984Y-91198200D01*
X143512984Y-91198200D02*
X143579651Y-91231533D01*
X143579651Y-91231533D02*
X143712984Y-91231533D01*
X143712984Y-91231533D02*
X143779651Y-91198200D01*
X143146318Y-91231533D02*
X143146318Y-90531533D01*
X142846318Y-91231533D02*
X142846318Y-90864866D01*
X142846318Y-90864866D02*
X142879651Y-90798200D01*
X142879651Y-90798200D02*
X142946318Y-90764866D01*
X142946318Y-90764866D02*
X143046318Y-90764866D01*
X143046318Y-90764866D02*
X143112985Y-90798200D01*
X143112985Y-90798200D02*
X143146318Y-90831533D01*
X142412985Y-91231533D02*
X142479652Y-91198200D01*
X142479652Y-91198200D02*
X142512985Y-91164866D01*
X142512985Y-91164866D02*
X142546318Y-91098200D01*
X142546318Y-91098200D02*
X142546318Y-90898200D01*
X142546318Y-90898200D02*
X142512985Y-90831533D01*
X142512985Y-90831533D02*
X142479652Y-90798200D01*
X142479652Y-90798200D02*
X142412985Y-90764866D01*
X142412985Y-90764866D02*
X142312985Y-90764866D01*
X142312985Y-90764866D02*
X142246318Y-90798200D01*
X142246318Y-90798200D02*
X142212985Y-90831533D01*
X142212985Y-90831533D02*
X142179652Y-90898200D01*
X142179652Y-90898200D02*
X142179652Y-91098200D01*
X142179652Y-91098200D02*
X142212985Y-91164866D01*
X142212985Y-91164866D02*
X142246318Y-91198200D01*
X142246318Y-91198200D02*
X142312985Y-91231533D01*
X142312985Y-91231533D02*
X142412985Y-91231533D01*
X141879652Y-90764866D02*
X141879652Y-91231533D01*
X141879652Y-90831533D02*
X141846319Y-90798200D01*
X141846319Y-90798200D02*
X141779652Y-90764866D01*
X141779652Y-90764866D02*
X141679652Y-90764866D01*
X141679652Y-90764866D02*
X141612985Y-90798200D01*
X141612985Y-90798200D02*
X141579652Y-90864866D01*
X141579652Y-90864866D02*
X141579652Y-91231533D01*
X140946319Y-90764866D02*
X140946319Y-91331533D01*
X140946319Y-91331533D02*
X140979652Y-91398200D01*
X140979652Y-91398200D02*
X141012986Y-91431533D01*
X141012986Y-91431533D02*
X141079652Y-91464866D01*
X141079652Y-91464866D02*
X141179652Y-91464866D01*
X141179652Y-91464866D02*
X141246319Y-91431533D01*
X140946319Y-91198200D02*
X141012986Y-91231533D01*
X141012986Y-91231533D02*
X141146319Y-91231533D01*
X141146319Y-91231533D02*
X141212986Y-91198200D01*
X141212986Y-91198200D02*
X141246319Y-91164866D01*
X141246319Y-91164866D02*
X141279652Y-91098200D01*
X141279652Y-91098200D02*
X141279652Y-90898200D01*
X141279652Y-90898200D02*
X141246319Y-90831533D01*
X141246319Y-90831533D02*
X141212986Y-90798200D01*
X141212986Y-90798200D02*
X141146319Y-90764866D01*
X141146319Y-90764866D02*
X141012986Y-90764866D01*
X141012986Y-90764866D02*
X140946319Y-90798200D01*
X140612986Y-91231533D02*
X140612986Y-90531533D01*
X140312986Y-91231533D02*
X140312986Y-90864866D01*
X140312986Y-90864866D02*
X140346319Y-90798200D01*
X140346319Y-90798200D02*
X140412986Y-90764866D01*
X140412986Y-90764866D02*
X140512986Y-90764866D01*
X140512986Y-90764866D02*
X140579653Y-90798200D01*
X140579653Y-90798200D02*
X140612986Y-90831533D01*
X140079653Y-90764866D02*
X139812986Y-90764866D01*
X139979653Y-90531533D02*
X139979653Y-91131533D01*
X139979653Y-91131533D02*
X139946320Y-91198200D01*
X139946320Y-91198200D02*
X139879653Y-91231533D01*
X139879653Y-91231533D02*
X139812986Y-91231533D01*
X139646320Y-90531533D02*
X139212986Y-90531533D01*
X139212986Y-90531533D02*
X139446320Y-90798200D01*
X139446320Y-90798200D02*
X139346320Y-90798200D01*
X139346320Y-90798200D02*
X139279653Y-90831533D01*
X139279653Y-90831533D02*
X139246320Y-90864866D01*
X139246320Y-90864866D02*
X139212986Y-90931533D01*
X139212986Y-90931533D02*
X139212986Y-91098200D01*
X139212986Y-91098200D02*
X139246320Y-91164866D01*
X139246320Y-91164866D02*
X139279653Y-91198200D01*
X139279653Y-91198200D02*
X139346320Y-91231533D01*
X139346320Y-91231533D02*
X139546320Y-91231533D01*
X139546320Y-91231533D02*
X139612986Y-91198200D01*
X139612986Y-91198200D02*
X139646320Y-91164866D01*
X138946319Y-90598200D02*
X138912986Y-90564866D01*
X138912986Y-90564866D02*
X138846319Y-90531533D01*
X138846319Y-90531533D02*
X138679653Y-90531533D01*
X138679653Y-90531533D02*
X138612986Y-90564866D01*
X138612986Y-90564866D02*
X138579653Y-90598200D01*
X138579653Y-90598200D02*
X138546319Y-90664866D01*
X138546319Y-90664866D02*
X138546319Y-90731533D01*
X138546319Y-90731533D02*
X138579653Y-90831533D01*
X138579653Y-90831533D02*
X138979653Y-91231533D01*
X138979653Y-91231533D02*
X138546319Y-91231533D01*
X134581316Y-72346533D02*
X134914649Y-72346533D01*
X134914649Y-72346533D02*
X134947982Y-72679866D01*
X134947982Y-72679866D02*
X134914649Y-72646533D01*
X134914649Y-72646533D02*
X134847982Y-72613200D01*
X134847982Y-72613200D02*
X134681316Y-72613200D01*
X134681316Y-72613200D02*
X134614649Y-72646533D01*
X134614649Y-72646533D02*
X134581316Y-72679866D01*
X134581316Y-72679866D02*
X134547982Y-72746533D01*
X134547982Y-72746533D02*
X134547982Y-72913200D01*
X134547982Y-72913200D02*
X134581316Y-72979866D01*
X134581316Y-72979866D02*
X134614649Y-73013200D01*
X134614649Y-73013200D02*
X134681316Y-73046533D01*
X134681316Y-73046533D02*
X134847982Y-73046533D01*
X134847982Y-73046533D02*
X134914649Y-73013200D01*
X134914649Y-73013200D02*
X134947982Y-72979866D01*
X134347982Y-72346533D02*
X134114649Y-73046533D01*
X134114649Y-73046533D02*
X133881315Y-72346533D01*
X147866316Y-85641533D02*
X147732982Y-85641533D01*
X147732982Y-85641533D02*
X147666316Y-85674866D01*
X147666316Y-85674866D02*
X147599649Y-85741533D01*
X147599649Y-85741533D02*
X147566316Y-85874866D01*
X147566316Y-85874866D02*
X147566316Y-86108200D01*
X147566316Y-86108200D02*
X147599649Y-86241533D01*
X147599649Y-86241533D02*
X147666316Y-86308200D01*
X147666316Y-86308200D02*
X147732982Y-86341533D01*
X147732982Y-86341533D02*
X147866316Y-86341533D01*
X147866316Y-86341533D02*
X147932982Y-86308200D01*
X147932982Y-86308200D02*
X147999649Y-86241533D01*
X147999649Y-86241533D02*
X148032982Y-86108200D01*
X148032982Y-86108200D02*
X148032982Y-85874866D01*
X148032982Y-85874866D02*
X147999649Y-85741533D01*
X147999649Y-85741533D02*
X147932982Y-85674866D01*
X147932982Y-85674866D02*
X147866316Y-85641533D01*
X147266316Y-85874866D02*
X147266316Y-86574866D01*
X147266316Y-85908200D02*
X147199649Y-85874866D01*
X147199649Y-85874866D02*
X147066316Y-85874866D01*
X147066316Y-85874866D02*
X146999649Y-85908200D01*
X146999649Y-85908200D02*
X146966316Y-85941533D01*
X146966316Y-85941533D02*
X146932983Y-86008200D01*
X146932983Y-86008200D02*
X146932983Y-86208200D01*
X146932983Y-86208200D02*
X146966316Y-86274866D01*
X146966316Y-86274866D02*
X146999649Y-86308200D01*
X146999649Y-86308200D02*
X147066316Y-86341533D01*
X147066316Y-86341533D02*
X147199649Y-86341533D01*
X147199649Y-86341533D02*
X147266316Y-86308200D01*
X146366316Y-86308200D02*
X146432983Y-86341533D01*
X146432983Y-86341533D02*
X146566316Y-86341533D01*
X146566316Y-86341533D02*
X146632983Y-86308200D01*
X146632983Y-86308200D02*
X146666316Y-86241533D01*
X146666316Y-86241533D02*
X146666316Y-85974866D01*
X146666316Y-85974866D02*
X146632983Y-85908200D01*
X146632983Y-85908200D02*
X146566316Y-85874866D01*
X146566316Y-85874866D02*
X146432983Y-85874866D01*
X146432983Y-85874866D02*
X146366316Y-85908200D01*
X146366316Y-85908200D02*
X146332983Y-85974866D01*
X146332983Y-85974866D02*
X146332983Y-86041533D01*
X146332983Y-86041533D02*
X146666316Y-86108200D01*
X146032983Y-85874866D02*
X146032983Y-86341533D01*
X146032983Y-85941533D02*
X145999650Y-85908200D01*
X145999650Y-85908200D02*
X145932983Y-85874866D01*
X145932983Y-85874866D02*
X145832983Y-85874866D01*
X145832983Y-85874866D02*
X145766316Y-85908200D01*
X145766316Y-85908200D02*
X145732983Y-85974866D01*
X145732983Y-85974866D02*
X145732983Y-86341533D01*
X145399650Y-86341533D02*
X145399650Y-85641533D01*
X145399650Y-85641533D02*
X145232983Y-85641533D01*
X145232983Y-85641533D02*
X145132983Y-85674866D01*
X145132983Y-85674866D02*
X145066317Y-85741533D01*
X145066317Y-85741533D02*
X145032983Y-85808200D01*
X145032983Y-85808200D02*
X144999650Y-85941533D01*
X144999650Y-85941533D02*
X144999650Y-86041533D01*
X144999650Y-86041533D02*
X145032983Y-86174866D01*
X145032983Y-86174866D02*
X145066317Y-86241533D01*
X145066317Y-86241533D02*
X145132983Y-86308200D01*
X145132983Y-86308200D02*
X145232983Y-86341533D01*
X145232983Y-86341533D02*
X145399650Y-86341533D01*
X144699650Y-86341533D02*
X144699650Y-85874866D01*
X144699650Y-86008200D02*
X144666317Y-85941533D01*
X144666317Y-85941533D02*
X144632983Y-85908200D01*
X144632983Y-85908200D02*
X144566317Y-85874866D01*
X144566317Y-85874866D02*
X144499650Y-85874866D01*
X144166317Y-86341533D02*
X144232984Y-86308200D01*
X144232984Y-86308200D02*
X144266317Y-86274866D01*
X144266317Y-86274866D02*
X144299650Y-86208200D01*
X144299650Y-86208200D02*
X144299650Y-86008200D01*
X144299650Y-86008200D02*
X144266317Y-85941533D01*
X144266317Y-85941533D02*
X144232984Y-85908200D01*
X144232984Y-85908200D02*
X144166317Y-85874866D01*
X144166317Y-85874866D02*
X144066317Y-85874866D01*
X144066317Y-85874866D02*
X143999650Y-85908200D01*
X143999650Y-85908200D02*
X143966317Y-85941533D01*
X143966317Y-85941533D02*
X143932984Y-86008200D01*
X143932984Y-86008200D02*
X143932984Y-86208200D01*
X143932984Y-86208200D02*
X143966317Y-86274866D01*
X143966317Y-86274866D02*
X143999650Y-86308200D01*
X143999650Y-86308200D02*
X144066317Y-86341533D01*
X144066317Y-86341533D02*
X144166317Y-86341533D01*
X143632984Y-85874866D02*
X143632984Y-86341533D01*
X143632984Y-85941533D02*
X143599651Y-85908200D01*
X143599651Y-85908200D02*
X143532984Y-85874866D01*
X143532984Y-85874866D02*
X143432984Y-85874866D01*
X143432984Y-85874866D02*
X143366317Y-85908200D01*
X143366317Y-85908200D02*
X143332984Y-85974866D01*
X143332984Y-85974866D02*
X143332984Y-86341533D01*
X142732984Y-86308200D02*
X142799651Y-86341533D01*
X142799651Y-86341533D02*
X142932984Y-86341533D01*
X142932984Y-86341533D02*
X142999651Y-86308200D01*
X142999651Y-86308200D02*
X143032984Y-86241533D01*
X143032984Y-86241533D02*
X143032984Y-85974866D01*
X143032984Y-85974866D02*
X142999651Y-85908200D01*
X142999651Y-85908200D02*
X142932984Y-85874866D01*
X142932984Y-85874866D02*
X142799651Y-85874866D01*
X142799651Y-85874866D02*
X142732984Y-85908200D01*
X142732984Y-85908200D02*
X142699651Y-85974866D01*
X142699651Y-85974866D02*
X142699651Y-86041533D01*
X142699651Y-86041533D02*
X143032984Y-86108200D01*
X160894649Y-99666533D02*
X161127982Y-99333200D01*
X161294649Y-99666533D02*
X161294649Y-98966533D01*
X161294649Y-98966533D02*
X161027982Y-98966533D01*
X161027982Y-98966533D02*
X160961316Y-98999866D01*
X160961316Y-98999866D02*
X160927982Y-99033200D01*
X160927982Y-99033200D02*
X160894649Y-99099866D01*
X160894649Y-99099866D02*
X160894649Y-99199866D01*
X160894649Y-99199866D02*
X160927982Y-99266533D01*
X160927982Y-99266533D02*
X160961316Y-99299866D01*
X160961316Y-99299866D02*
X161027982Y-99333200D01*
X161027982Y-99333200D02*
X161294649Y-99333200D01*
X160294649Y-99199866D02*
X160294649Y-99666533D01*
X160461316Y-98933200D02*
X160627982Y-99433200D01*
X160627982Y-99433200D02*
X160194649Y-99433200D01*
X159834649Y-74859866D02*
X159867982Y-74893200D01*
X159867982Y-74893200D02*
X159967982Y-74926533D01*
X159967982Y-74926533D02*
X160034649Y-74926533D01*
X160034649Y-74926533D02*
X160134649Y-74893200D01*
X160134649Y-74893200D02*
X160201316Y-74826533D01*
X160201316Y-74826533D02*
X160234649Y-74759866D01*
X160234649Y-74759866D02*
X160267982Y-74626533D01*
X160267982Y-74626533D02*
X160267982Y-74526533D01*
X160267982Y-74526533D02*
X160234649Y-74393200D01*
X160234649Y-74393200D02*
X160201316Y-74326533D01*
X160201316Y-74326533D02*
X160134649Y-74259866D01*
X160134649Y-74259866D02*
X160034649Y-74226533D01*
X160034649Y-74226533D02*
X159967982Y-74226533D01*
X159967982Y-74226533D02*
X159867982Y-74259866D01*
X159867982Y-74259866D02*
X159834649Y-74293200D01*
X159567982Y-74893200D02*
X159467982Y-74926533D01*
X159467982Y-74926533D02*
X159301316Y-74926533D01*
X159301316Y-74926533D02*
X159234649Y-74893200D01*
X159234649Y-74893200D02*
X159201316Y-74859866D01*
X159201316Y-74859866D02*
X159167982Y-74793200D01*
X159167982Y-74793200D02*
X159167982Y-74726533D01*
X159167982Y-74726533D02*
X159201316Y-74659866D01*
X159201316Y-74659866D02*
X159234649Y-74626533D01*
X159234649Y-74626533D02*
X159301316Y-74593200D01*
X159301316Y-74593200D02*
X159434649Y-74559866D01*
X159434649Y-74559866D02*
X159501316Y-74526533D01*
X159501316Y-74526533D02*
X159534649Y-74493200D01*
X159534649Y-74493200D02*
X159567982Y-74426533D01*
X159567982Y-74426533D02*
X159567982Y-74359866D01*
X159567982Y-74359866D02*
X159534649Y-74293200D01*
X159534649Y-74293200D02*
X159501316Y-74259866D01*
X159501316Y-74259866D02*
X159434649Y-74226533D01*
X159434649Y-74226533D02*
X159267982Y-74226533D01*
X159267982Y-74226533D02*
X159167982Y-74259866D01*
X158501315Y-74926533D02*
X158901315Y-74926533D01*
X158701315Y-74926533D02*
X158701315Y-74226533D01*
X158701315Y-74226533D02*
X158767982Y-74326533D01*
X158767982Y-74326533D02*
X158834649Y-74393200D01*
X158834649Y-74393200D02*
X158901315Y-74426533D01*
X160084649Y-95891533D02*
X160084649Y-95191533D01*
X160084649Y-95191533D02*
X159917982Y-95191533D01*
X159917982Y-95191533D02*
X159817982Y-95224866D01*
X159817982Y-95224866D02*
X159751316Y-95291533D01*
X159751316Y-95291533D02*
X159717982Y-95358200D01*
X159717982Y-95358200D02*
X159684649Y-95491533D01*
X159684649Y-95491533D02*
X159684649Y-95591533D01*
X159684649Y-95591533D02*
X159717982Y-95724866D01*
X159717982Y-95724866D02*
X159751316Y-95791533D01*
X159751316Y-95791533D02*
X159817982Y-95858200D01*
X159817982Y-95858200D02*
X159917982Y-95891533D01*
X159917982Y-95891533D02*
X160084649Y-95891533D01*
X159151316Y-95524866D02*
X159051316Y-95558200D01*
X159051316Y-95558200D02*
X159017982Y-95591533D01*
X159017982Y-95591533D02*
X158984649Y-95658200D01*
X158984649Y-95658200D02*
X158984649Y-95758200D01*
X158984649Y-95758200D02*
X159017982Y-95824866D01*
X159017982Y-95824866D02*
X159051316Y-95858200D01*
X159051316Y-95858200D02*
X159117982Y-95891533D01*
X159117982Y-95891533D02*
X159384649Y-95891533D01*
X159384649Y-95891533D02*
X159384649Y-95191533D01*
X159384649Y-95191533D02*
X159151316Y-95191533D01*
X159151316Y-95191533D02*
X159084649Y-95224866D01*
X159084649Y-95224866D02*
X159051316Y-95258200D01*
X159051316Y-95258200D02*
X159017982Y-95324866D01*
X159017982Y-95324866D02*
X159017982Y-95391533D01*
X159017982Y-95391533D02*
X159051316Y-95458200D01*
X159051316Y-95458200D02*
X159084649Y-95491533D01*
X159084649Y-95491533D02*
X159151316Y-95524866D01*
X159151316Y-95524866D02*
X159384649Y-95524866D01*
X158317982Y-95224866D02*
X158384649Y-95191533D01*
X158384649Y-95191533D02*
X158484649Y-95191533D01*
X158484649Y-95191533D02*
X158584649Y-95224866D01*
X158584649Y-95224866D02*
X158651316Y-95291533D01*
X158651316Y-95291533D02*
X158684649Y-95358200D01*
X158684649Y-95358200D02*
X158717982Y-95491533D01*
X158717982Y-95491533D02*
X158717982Y-95591533D01*
X158717982Y-95591533D02*
X158684649Y-95724866D01*
X158684649Y-95724866D02*
X158651316Y-95791533D01*
X158651316Y-95791533D02*
X158584649Y-95858200D01*
X158584649Y-95858200D02*
X158484649Y-95891533D01*
X158484649Y-95891533D02*
X158417982Y-95891533D01*
X158417982Y-95891533D02*
X158317982Y-95858200D01*
X158317982Y-95858200D02*
X158284649Y-95824866D01*
X158284649Y-95824866D02*
X158284649Y-95591533D01*
X158284649Y-95591533D02*
X158417982Y-95591533D01*
X154051316Y-82246533D02*
X153617982Y-82246533D01*
X153617982Y-82246533D02*
X153851316Y-82513200D01*
X153851316Y-82513200D02*
X153751316Y-82513200D01*
X153751316Y-82513200D02*
X153684649Y-82546533D01*
X153684649Y-82546533D02*
X153651316Y-82579866D01*
X153651316Y-82579866D02*
X153617982Y-82646533D01*
X153617982Y-82646533D02*
X153617982Y-82813200D01*
X153617982Y-82813200D02*
X153651316Y-82879866D01*
X153651316Y-82879866D02*
X153684649Y-82913200D01*
X153684649Y-82913200D02*
X153751316Y-82946533D01*
X153751316Y-82946533D02*
X153951316Y-82946533D01*
X153951316Y-82946533D02*
X154017982Y-82913200D01*
X154017982Y-82913200D02*
X154051316Y-82879866D01*
X153417982Y-82246533D02*
X153184649Y-82946533D01*
X153184649Y-82946533D02*
X152951315Y-82246533D01*
X152784649Y-82246533D02*
X152351315Y-82246533D01*
X152351315Y-82246533D02*
X152584649Y-82513200D01*
X152584649Y-82513200D02*
X152484649Y-82513200D01*
X152484649Y-82513200D02*
X152417982Y-82546533D01*
X152417982Y-82546533D02*
X152384649Y-82579866D01*
X152384649Y-82579866D02*
X152351315Y-82646533D01*
X152351315Y-82646533D02*
X152351315Y-82813200D01*
X152351315Y-82813200D02*
X152384649Y-82879866D01*
X152384649Y-82879866D02*
X152417982Y-82913200D01*
X152417982Y-82913200D02*
X152484649Y-82946533D01*
X152484649Y-82946533D02*
X152684649Y-82946533D01*
X152684649Y-82946533D02*
X152751315Y-82913200D01*
X152751315Y-82913200D02*
X152784649Y-82879866D01*
X161074649Y-67666533D02*
X161307982Y-67333200D01*
X161474649Y-67666533D02*
X161474649Y-66966533D01*
X161474649Y-66966533D02*
X161207982Y-66966533D01*
X161207982Y-66966533D02*
X161141316Y-66999866D01*
X161141316Y-66999866D02*
X161107982Y-67033200D01*
X161107982Y-67033200D02*
X161074649Y-67099866D01*
X161074649Y-67099866D02*
X161074649Y-67199866D01*
X161074649Y-67199866D02*
X161107982Y-67266533D01*
X161107982Y-67266533D02*
X161141316Y-67299866D01*
X161141316Y-67299866D02*
X161207982Y-67333200D01*
X161207982Y-67333200D02*
X161474649Y-67333200D01*
X160474649Y-66966533D02*
X160607982Y-66966533D01*
X160607982Y-66966533D02*
X160674649Y-66999866D01*
X160674649Y-66999866D02*
X160707982Y-67033200D01*
X160707982Y-67033200D02*
X160774649Y-67133200D01*
X160774649Y-67133200D02*
X160807982Y-67266533D01*
X160807982Y-67266533D02*
X160807982Y-67533200D01*
X160807982Y-67533200D02*
X160774649Y-67599866D01*
X160774649Y-67599866D02*
X160741316Y-67633200D01*
X160741316Y-67633200D02*
X160674649Y-67666533D01*
X160674649Y-67666533D02*
X160541316Y-67666533D01*
X160541316Y-67666533D02*
X160474649Y-67633200D01*
X160474649Y-67633200D02*
X160441316Y-67599866D01*
X160441316Y-67599866D02*
X160407982Y-67533200D01*
X160407982Y-67533200D02*
X160407982Y-67366533D01*
X160407982Y-67366533D02*
X160441316Y-67299866D01*
X160441316Y-67299866D02*
X160474649Y-67266533D01*
X160474649Y-67266533D02*
X160541316Y-67233200D01*
X160541316Y-67233200D02*
X160674649Y-67233200D01*
X160674649Y-67233200D02*
X160741316Y-67266533D01*
X160741316Y-67266533D02*
X160774649Y-67299866D01*
X160774649Y-67299866D02*
X160807982Y-67366533D01*
X135704649Y-89426533D02*
X135704649Y-88726533D01*
X135704649Y-88726533D02*
X135304649Y-89426533D01*
X135304649Y-89426533D02*
X135304649Y-88726533D01*
X134571316Y-89359866D02*
X134604649Y-89393200D01*
X134604649Y-89393200D02*
X134704649Y-89426533D01*
X134704649Y-89426533D02*
X134771316Y-89426533D01*
X134771316Y-89426533D02*
X134871316Y-89393200D01*
X134871316Y-89393200D02*
X134937983Y-89326533D01*
X134937983Y-89326533D02*
X134971316Y-89259866D01*
X134971316Y-89259866D02*
X135004649Y-89126533D01*
X135004649Y-89126533D02*
X135004649Y-89026533D01*
X135004649Y-89026533D02*
X134971316Y-88893200D01*
X134971316Y-88893200D02*
X134937983Y-88826533D01*
X134937983Y-88826533D02*
X134871316Y-88759866D01*
X134871316Y-88759866D02*
X134771316Y-88726533D01*
X134771316Y-88726533D02*
X134704649Y-88726533D01*
X134704649Y-88726533D02*
X134604649Y-88759866D01*
X134604649Y-88759866D02*
X134571316Y-88793200D01*
X157326316Y-95206533D02*
X157659649Y-95206533D01*
X157659649Y-95206533D02*
X157692982Y-95539866D01*
X157692982Y-95539866D02*
X157659649Y-95506533D01*
X157659649Y-95506533D02*
X157592982Y-95473200D01*
X157592982Y-95473200D02*
X157426316Y-95473200D01*
X157426316Y-95473200D02*
X157359649Y-95506533D01*
X157359649Y-95506533D02*
X157326316Y-95539866D01*
X157326316Y-95539866D02*
X157292982Y-95606533D01*
X157292982Y-95606533D02*
X157292982Y-95773200D01*
X157292982Y-95773200D02*
X157326316Y-95839866D01*
X157326316Y-95839866D02*
X157359649Y-95873200D01*
X157359649Y-95873200D02*
X157426316Y-95906533D01*
X157426316Y-95906533D02*
X157592982Y-95906533D01*
X157592982Y-95906533D02*
X157659649Y-95873200D01*
X157659649Y-95873200D02*
X157692982Y-95839866D01*
X157092982Y-95206533D02*
X156859649Y-95906533D01*
X156859649Y-95906533D02*
X156626315Y-95206533D01*
X155784649Y-71489866D02*
X155817982Y-71523200D01*
X155817982Y-71523200D02*
X155917982Y-71556533D01*
X155917982Y-71556533D02*
X155984649Y-71556533D01*
X155984649Y-71556533D02*
X156084649Y-71523200D01*
X156084649Y-71523200D02*
X156151316Y-71456533D01*
X156151316Y-71456533D02*
X156184649Y-71389866D01*
X156184649Y-71389866D02*
X156217982Y-71256533D01*
X156217982Y-71256533D02*
X156217982Y-71156533D01*
X156217982Y-71156533D02*
X156184649Y-71023200D01*
X156184649Y-71023200D02*
X156151316Y-70956533D01*
X156151316Y-70956533D02*
X156084649Y-70889866D01*
X156084649Y-70889866D02*
X155984649Y-70856533D01*
X155984649Y-70856533D02*
X155917982Y-70856533D01*
X155917982Y-70856533D02*
X155817982Y-70889866D01*
X155817982Y-70889866D02*
X155784649Y-70923200D01*
X155151316Y-71556533D02*
X155484649Y-71556533D01*
X155484649Y-71556533D02*
X155484649Y-70856533D01*
X154917982Y-71556533D02*
X154917982Y-70856533D01*
X154517982Y-71556533D02*
X154817982Y-71156533D01*
X154517982Y-70856533D02*
X154917982Y-71256533D01*
X141121316Y-67016533D02*
X140954649Y-67716533D01*
X140954649Y-67716533D02*
X140821316Y-67216533D01*
X140821316Y-67216533D02*
X140687982Y-67716533D01*
X140687982Y-67716533D02*
X140521316Y-67016533D01*
X140287982Y-67683200D02*
X140187982Y-67716533D01*
X140187982Y-67716533D02*
X140021316Y-67716533D01*
X140021316Y-67716533D02*
X139954649Y-67683200D01*
X139954649Y-67683200D02*
X139921316Y-67649866D01*
X139921316Y-67649866D02*
X139887982Y-67583200D01*
X139887982Y-67583200D02*
X139887982Y-67516533D01*
X139887982Y-67516533D02*
X139921316Y-67449866D01*
X139921316Y-67449866D02*
X139954649Y-67416533D01*
X139954649Y-67416533D02*
X140021316Y-67383200D01*
X140021316Y-67383200D02*
X140154649Y-67349866D01*
X140154649Y-67349866D02*
X140221316Y-67316533D01*
X140221316Y-67316533D02*
X140254649Y-67283200D01*
X140254649Y-67283200D02*
X140287982Y-67216533D01*
X140287982Y-67216533D02*
X140287982Y-67149866D01*
X140287982Y-67149866D02*
X140254649Y-67083200D01*
X140254649Y-67083200D02*
X140221316Y-67049866D01*
X140221316Y-67049866D02*
X140154649Y-67016533D01*
X140154649Y-67016533D02*
X139987982Y-67016533D01*
X139987982Y-67016533D02*
X139887982Y-67049866D01*
X139221315Y-67716533D02*
X139621315Y-67716533D01*
X139421315Y-67716533D02*
X139421315Y-67016533D01*
X139421315Y-67016533D02*
X139487982Y-67116533D01*
X139487982Y-67116533D02*
X139554649Y-67183200D01*
X139554649Y-67183200D02*
X139621315Y-67216533D01*
X158442982Y-70889866D02*
X158509649Y-70856533D01*
X158509649Y-70856533D02*
X158609649Y-70856533D01*
X158609649Y-70856533D02*
X158709649Y-70889866D01*
X158709649Y-70889866D02*
X158776316Y-70956533D01*
X158776316Y-70956533D02*
X158809649Y-71023200D01*
X158809649Y-71023200D02*
X158842982Y-71156533D01*
X158842982Y-71156533D02*
X158842982Y-71256533D01*
X158842982Y-71256533D02*
X158809649Y-71389866D01*
X158809649Y-71389866D02*
X158776316Y-71456533D01*
X158776316Y-71456533D02*
X158709649Y-71523200D01*
X158709649Y-71523200D02*
X158609649Y-71556533D01*
X158609649Y-71556533D02*
X158542982Y-71556533D01*
X158542982Y-71556533D02*
X158442982Y-71523200D01*
X158442982Y-71523200D02*
X158409649Y-71489866D01*
X158409649Y-71489866D02*
X158409649Y-71256533D01*
X158409649Y-71256533D02*
X158542982Y-71256533D01*
X158109649Y-71556533D02*
X158109649Y-70856533D01*
X158109649Y-70856533D02*
X157709649Y-71556533D01*
X157709649Y-71556533D02*
X157709649Y-70856533D01*
X157376316Y-71556533D02*
X157376316Y-70856533D01*
X157376316Y-70856533D02*
X157209649Y-70856533D01*
X157209649Y-70856533D02*
X157109649Y-70889866D01*
X157109649Y-70889866D02*
X157042983Y-70956533D01*
X157042983Y-70956533D02*
X157009649Y-71023200D01*
X157009649Y-71023200D02*
X156976316Y-71156533D01*
X156976316Y-71156533D02*
X156976316Y-71256533D01*
X156976316Y-71256533D02*
X157009649Y-71389866D01*
X157009649Y-71389866D02*
X157042983Y-71456533D01*
X157042983Y-71456533D02*
X157109649Y-71523200D01*
X157109649Y-71523200D02*
X157209649Y-71556533D01*
X157209649Y-71556533D02*
X157376316Y-71556533D01*
X154484649Y-68581533D02*
X154717982Y-68248200D01*
X154884649Y-68581533D02*
X154884649Y-67881533D01*
X154884649Y-67881533D02*
X154617982Y-67881533D01*
X154617982Y-67881533D02*
X154551316Y-67914866D01*
X154551316Y-67914866D02*
X154517982Y-67948200D01*
X154517982Y-67948200D02*
X154484649Y-68014866D01*
X154484649Y-68014866D02*
X154484649Y-68114866D01*
X154484649Y-68114866D02*
X154517982Y-68181533D01*
X154517982Y-68181533D02*
X154551316Y-68214866D01*
X154551316Y-68214866D02*
X154617982Y-68248200D01*
X154617982Y-68248200D02*
X154884649Y-68248200D01*
X154217982Y-68548200D02*
X154117982Y-68581533D01*
X154117982Y-68581533D02*
X153951316Y-68581533D01*
X153951316Y-68581533D02*
X153884649Y-68548200D01*
X153884649Y-68548200D02*
X153851316Y-68514866D01*
X153851316Y-68514866D02*
X153817982Y-68448200D01*
X153817982Y-68448200D02*
X153817982Y-68381533D01*
X153817982Y-68381533D02*
X153851316Y-68314866D01*
X153851316Y-68314866D02*
X153884649Y-68281533D01*
X153884649Y-68281533D02*
X153951316Y-68248200D01*
X153951316Y-68248200D02*
X154084649Y-68214866D01*
X154084649Y-68214866D02*
X154151316Y-68181533D01*
X154151316Y-68181533D02*
X154184649Y-68148200D01*
X154184649Y-68148200D02*
X154217982Y-68081533D01*
X154217982Y-68081533D02*
X154217982Y-68014866D01*
X154217982Y-68014866D02*
X154184649Y-67948200D01*
X154184649Y-67948200D02*
X154151316Y-67914866D01*
X154151316Y-67914866D02*
X154084649Y-67881533D01*
X154084649Y-67881533D02*
X153917982Y-67881533D01*
X153917982Y-67881533D02*
X153817982Y-67914866D01*
X153617982Y-67881533D02*
X153217982Y-67881533D01*
X153417982Y-68581533D02*
X153417982Y-67881533D01*
X166327982Y-96019866D02*
X166394649Y-95986533D01*
X166394649Y-95986533D02*
X166494649Y-95986533D01*
X166494649Y-95986533D02*
X166594649Y-96019866D01*
X166594649Y-96019866D02*
X166661316Y-96086533D01*
X166661316Y-96086533D02*
X166694649Y-96153200D01*
X166694649Y-96153200D02*
X166727982Y-96286533D01*
X166727982Y-96286533D02*
X166727982Y-96386533D01*
X166727982Y-96386533D02*
X166694649Y-96519866D01*
X166694649Y-96519866D02*
X166661316Y-96586533D01*
X166661316Y-96586533D02*
X166594649Y-96653200D01*
X166594649Y-96653200D02*
X166494649Y-96686533D01*
X166494649Y-96686533D02*
X166427982Y-96686533D01*
X166427982Y-96686533D02*
X166327982Y-96653200D01*
X166327982Y-96653200D02*
X166294649Y-96619866D01*
X166294649Y-96619866D02*
X166294649Y-96386533D01*
X166294649Y-96386533D02*
X166427982Y-96386533D01*
X134287982Y-69979866D02*
X134354649Y-69946533D01*
X134354649Y-69946533D02*
X134454649Y-69946533D01*
X134454649Y-69946533D02*
X134554649Y-69979866D01*
X134554649Y-69979866D02*
X134621316Y-70046533D01*
X134621316Y-70046533D02*
X134654649Y-70113200D01*
X134654649Y-70113200D02*
X134687982Y-70246533D01*
X134687982Y-70246533D02*
X134687982Y-70346533D01*
X134687982Y-70346533D02*
X134654649Y-70479866D01*
X134654649Y-70479866D02*
X134621316Y-70546533D01*
X134621316Y-70546533D02*
X134554649Y-70613200D01*
X134554649Y-70613200D02*
X134454649Y-70646533D01*
X134454649Y-70646533D02*
X134387982Y-70646533D01*
X134387982Y-70646533D02*
X134287982Y-70613200D01*
X134287982Y-70613200D02*
X134254649Y-70579866D01*
X134254649Y-70579866D02*
X134254649Y-70346533D01*
X134254649Y-70346533D02*
X134387982Y-70346533D01*
X166551316Y-72456533D02*
X166884649Y-72456533D01*
X166884649Y-72456533D02*
X166917982Y-72789866D01*
X166917982Y-72789866D02*
X166884649Y-72756533D01*
X166884649Y-72756533D02*
X166817982Y-72723200D01*
X166817982Y-72723200D02*
X166651316Y-72723200D01*
X166651316Y-72723200D02*
X166584649Y-72756533D01*
X166584649Y-72756533D02*
X166551316Y-72789866D01*
X166551316Y-72789866D02*
X166517982Y-72856533D01*
X166517982Y-72856533D02*
X166517982Y-73023200D01*
X166517982Y-73023200D02*
X166551316Y-73089866D01*
X166551316Y-73089866D02*
X166584649Y-73123200D01*
X166584649Y-73123200D02*
X166651316Y-73156533D01*
X166651316Y-73156533D02*
X166817982Y-73156533D01*
X166817982Y-73156533D02*
X166884649Y-73123200D01*
X166884649Y-73123200D02*
X166917982Y-73089866D01*
X166317982Y-72456533D02*
X166084649Y-73156533D01*
X166084649Y-73156533D02*
X165851315Y-72456533D01*
X159326316Y-67881533D02*
X159659649Y-67881533D01*
X159659649Y-67881533D02*
X159692982Y-68214866D01*
X159692982Y-68214866D02*
X159659649Y-68181533D01*
X159659649Y-68181533D02*
X159592982Y-68148200D01*
X159592982Y-68148200D02*
X159426316Y-68148200D01*
X159426316Y-68148200D02*
X159359649Y-68181533D01*
X159359649Y-68181533D02*
X159326316Y-68214866D01*
X159326316Y-68214866D02*
X159292982Y-68281533D01*
X159292982Y-68281533D02*
X159292982Y-68448200D01*
X159292982Y-68448200D02*
X159326316Y-68514866D01*
X159326316Y-68514866D02*
X159359649Y-68548200D01*
X159359649Y-68548200D02*
X159426316Y-68581533D01*
X159426316Y-68581533D02*
X159592982Y-68581533D01*
X159592982Y-68581533D02*
X159659649Y-68548200D01*
X159659649Y-68548200D02*
X159692982Y-68514866D01*
X159092982Y-67881533D02*
X158859649Y-68581533D01*
X158859649Y-68581533D02*
X158626315Y-67881533D01*
X135351316Y-78386533D02*
X135684649Y-78386533D01*
X135684649Y-78386533D02*
X135717982Y-78719866D01*
X135717982Y-78719866D02*
X135684649Y-78686533D01*
X135684649Y-78686533D02*
X135617982Y-78653200D01*
X135617982Y-78653200D02*
X135451316Y-78653200D01*
X135451316Y-78653200D02*
X135384649Y-78686533D01*
X135384649Y-78686533D02*
X135351316Y-78719866D01*
X135351316Y-78719866D02*
X135317982Y-78786533D01*
X135317982Y-78786533D02*
X135317982Y-78953200D01*
X135317982Y-78953200D02*
X135351316Y-79019866D01*
X135351316Y-79019866D02*
X135384649Y-79053200D01*
X135384649Y-79053200D02*
X135451316Y-79086533D01*
X135451316Y-79086533D02*
X135617982Y-79086533D01*
X135617982Y-79086533D02*
X135684649Y-79053200D01*
X135684649Y-79053200D02*
X135717982Y-79019866D01*
X135117982Y-78386533D02*
X134884649Y-79086533D01*
X134884649Y-79086533D02*
X134651315Y-78386533D01*
X160234649Y-79076533D02*
X160234649Y-78376533D01*
X160234649Y-78376533D02*
X160001316Y-78876533D01*
X160001316Y-78876533D02*
X159767982Y-78376533D01*
X159767982Y-78376533D02*
X159767982Y-79076533D01*
X159434649Y-79076533D02*
X159434649Y-78376533D01*
X158734649Y-79076533D02*
X159134649Y-79076533D01*
X158934649Y-79076533D02*
X158934649Y-78376533D01*
X158934649Y-78376533D02*
X159001316Y-78476533D01*
X159001316Y-78476533D02*
X159067983Y-78543200D01*
X159067983Y-78543200D02*
X159134649Y-78576533D01*
D11*
X138775000Y-70300000D02*
G75*
G02*
X136225000Y-70300000I-1275000J0D01*
G01*
X136225000Y-70300000D02*
G75*
G02*
X138775000Y-70300000I1275000J0D01*
G01*
X138775000Y-96300000D02*
G75*
G02*
X136225000Y-96300000I-1275000J0D01*
G01*
X136225000Y-96300000D02*
G75*
G02*
X138775000Y-96300000I1275000J0D01*
G01*
X164775000Y-70300000D02*
G75*
G02*
X162225000Y-70300000I-1275000J0D01*
G01*
X162225000Y-70300000D02*
G75*
G02*
X164775000Y-70300000I1275000J0D01*
G01*
X164775000Y-96300000D02*
G75*
G02*
X162225000Y-96300000I-1275000J0D01*
G01*
X162225000Y-96300000D02*
G75*
G02*
X164775000Y-96300000I1275000J0D01*
G01*
D12*
X136815000Y-98697823D02*
X136815000Y-98622500D01*
%LPC*%
D13*
X164735000Y-67287500D03*
X162485000Y-67287500D03*
X134502500Y-71415000D03*
X134502500Y-69165000D03*
X134517500Y-95195000D03*
X134517500Y-97445000D03*
X164595000Y-99287500D03*
X162345000Y-99287500D03*
D14*
X136950000Y-78680000D03*
D15*
X136950000Y-77430000D03*
X136950000Y-76180000D03*
X136950000Y-74930000D03*
D16*
X154180000Y-69760000D03*
D17*
X155430000Y-69760000D03*
X156680000Y-69760000D03*
X157930000Y-69760000D03*
X159180000Y-69760000D03*
D18*
X163910000Y-74750000D03*
X163910000Y-76750000D03*
X163910000Y-78750000D03*
X163910000Y-80750000D03*
X163910000Y-82750000D03*
D13*
X136355000Y-67302500D03*
X138605000Y-67302500D03*
X166482500Y-71445000D03*
X166482500Y-69195000D03*
D18*
X161910000Y-74750000D03*
X161910000Y-76750000D03*
X161910000Y-78750000D03*
X161910000Y-80750000D03*
X161910000Y-82750000D03*
D14*
X136970000Y-91590000D03*
D15*
X136970000Y-90340000D03*
X136970000Y-89090000D03*
X136970000Y-87840000D03*
X136970000Y-86590000D03*
X136970000Y-85340000D03*
X136970000Y-84090000D03*
X136970000Y-82840000D03*
D19*
X159225000Y-96950000D03*
D18*
X159225000Y-98950000D03*
X157225000Y-96950000D03*
X157225000Y-98950000D03*
X155225000Y-96950000D03*
X155225000Y-98950000D03*
D13*
X166477500Y-95205000D03*
X166477500Y-97455000D03*
D18*
X165910000Y-74725000D03*
X165910000Y-76725000D03*
X165910000Y-78725000D03*
X165910000Y-80725000D03*
X165910000Y-82725000D03*
D13*
X136375000Y-99317500D03*
X138625000Y-99317500D03*
%LPD*%
M02*
