M48
; DRILL file {KiCad 8.0.4-8.0.4-0~ubuntu24.04.1} date 2024-09-03T20:50:12+0700
; FORMAT={-:-/ absolute / metric / decimal}
; #@! TF.CreationDate,2024-09-03T20:50:12+07:00
; #@! TF.GenerationSoftware,Kicad,Pcbnew,8.0.4-8.0.4-0~ubuntu24.04.1
; #@! TF.FileFunction,Plated,1,2,PTH
FMAT,2
METRIC
; #@! TA.AperFunction,Plated,PTH,ViaDrill
T1C0.300
; #@! TA.AperFunction,Plated,PTH,ComponentDrill
T2C0.600
; #@! TA.AperFunction,Plated,PTH,ComponentDrill
T3C0.650
; #@! TA.AperFunction,Plated,PTH,ComponentDrill
T4C0.800
%
G90
G05
T1
X135.58Y-73.99
X135.6Y-73.1
X135.67Y-92.78
X136.19Y-93.51
X136.36Y-80.48
X136.57Y-73.12
X136.71Y-92.79
X137.425Y-81.6
X137.43Y-80.5
X138.25Y-86.56
X138.272Y-92.726
X138.45Y-77.4
X138.95Y-80.12
X139.065Y-86.52
X139.1Y-92.75
X139.39Y-77.327
X139.65Y-73.56
X139.7Y-89.175
X139.75Y-92.275
X139.96Y-80.14
X140.11Y-82.28
X140.425Y-97.775
X140.45Y-96.8
X140.48Y-73.24
X140.625Y-93.1
X140.86Y-80.15
X140.9Y-72.175
X140.9Y-89.2
X140.95Y-77.66
X141.0Y-71.25
X141.05Y-82.3
X141.085Y-83.245
X141.097Y-93.893
X141.38Y-76.66
X141.425Y-70.225
X141.43Y-73.25
X141.825Y-72.175
X141.94Y-77.66
X142.0Y-89.175
X142.15Y-94.525
X142.15Y-95.5
X142.21Y-76.63
X142.22Y-73.43
X142.47Y-85.02
X142.725Y-71.2
X142.725Y-81.112
X142.95Y-68.525
X143.1Y-89.175
X143.2Y-76.625
X143.2Y-94.525
X143.2Y-95.5
X143.224Y-84.536
X143.427Y-81.703
X143.599Y-69.101
X143.623Y-79.45
X143.97Y-85.12
X144.025Y-97.2
X144.05Y-98.275
X144.2Y-94.55
X144.2Y-95.525
X144.3Y-89.2
X144.55Y-74.425
X144.563Y-72.05
X144.9Y-97.225
X144.9Y-98.275
X145.07Y-91.743
X145.15Y-82.6
X145.3Y-70.4
X145.365Y-81.19
X145.45Y-74.6
X145.55Y-89.225
X145.675Y-72.225
X145.7Y-68.525
X145.775Y-93.625
X145.975Y-69.775
X146.3Y-82.79
X146.3Y-83.82
X146.31Y-84.85
X146.511Y-94.683
X146.625Y-72.225
X147.05Y-85.175
X147.125Y-84.15
X147.139Y-94.113
X147.825Y-67.825
X147.925Y-68.875
X148.3Y-71.0
X148.375Y-82.95
X148.41Y-81.925
X148.579Y-79.129
X148.7Y-70.025
X148.725Y-78.325
X148.85Y-67.885
X148.89Y-90.65
X148.89Y-91.62
X148.95Y-72.2
X148.968Y-84.15
X149.08Y-74.785
X149.08Y-76.42
X149.11Y-82.42
X149.3Y-73.875
X149.35Y-77.35
X149.81Y-75.17
X149.82Y-90.65
X149.82Y-91.62
X149.85Y-67.85
X149.85Y-76.025
X149.918Y-97.184
X149.99Y-81.97
X150.06Y-77.72
X150.075Y-79.675
X150.08Y-78.72
X150.225Y-70.975
X150.675Y-94.052
X150.825Y-67.95
X151.2Y-97.925
X151.2Y-99.05
X151.325Y-94.525
X152.5Y-97.9
X152.506Y-70.541
X152.575Y-92.525
X152.575Y-99.05
X152.64Y-85.642
X153.075Y-69.975
X153.436Y-82.524
X153.45Y-89.775
X153.735Y-85.659
X153.825Y-92.5
X153.9Y-67.1
X154.282Y-82.532
X154.4Y-74.425
X154.425Y-79.6
X154.6Y-76.475
X154.625Y-89.775
X154.675Y-77.625
X154.7Y-73.675
X155.125Y-82.55
X155.425Y-67.075
X155.425Y-79.6
X155.589Y-73.675
X155.725Y-77.775
X155.8Y-89.775
X156.025Y-82.475
X156.25Y-79.55
X156.475Y-73.7
X156.775Y-77.875
X156.775Y-83.275
X156.775Y-84.17
X157.099Y-79.826
X157.175Y-67.1
X157.27Y-92.575
X158.075Y-94.775
X158.111Y-71.825
X158.5Y-88.875
X158.875Y-94.796
X158.95Y-67.075
X159.025Y-84.85
X159.05Y-83.975
X159.075Y-91.625
X159.55Y-88.875
X160.15Y-83.975
X160.15Y-84.85
X160.225Y-91.6
X160.275Y-71.475
X160.3Y-72.35
X160.53Y-93.21
X160.654Y-82.43
X161.025Y-84.98
X161.18Y-93.89
X161.6Y-90.85
X161.85Y-93.19
X162.45Y-88.525
X162.45Y-89.65
X163.3Y-83.875
X163.45Y-88.55
X163.45Y-89.675
X164.375Y-88.575
X164.375Y-89.7
X164.675Y-83.9
X165.575Y-93.15
X166.225Y-90.325
X166.26Y-92.25
X166.275Y-86.55
X166.275Y-87.376
T2
X136.95Y-74.93
X136.95Y-76.18
X136.95Y-77.43
X136.95Y-78.68
X136.97Y-82.84
X136.97Y-84.09
X136.97Y-85.34
X136.97Y-86.59
X136.97Y-87.84
X136.97Y-89.09
X136.97Y-90.34
X136.97Y-91.59
X154.18Y-69.76
X155.43Y-69.76
X156.68Y-69.76
X157.93Y-69.76
X159.18Y-69.76
T3
X134.502Y-69.165
X134.502Y-71.415
X134.517Y-95.195
X134.517Y-97.445
X136.355Y-67.302
X136.375Y-99.317
X138.605Y-67.302
X138.625Y-99.317
X162.345Y-99.287
X162.485Y-67.287
X164.595Y-99.287
X164.735Y-67.287
X166.477Y-95.205
X166.477Y-97.455
X166.482Y-69.195
X166.482Y-71.445
T4
X155.225Y-96.95
X155.225Y-98.95
X157.225Y-96.95
X157.225Y-98.95
X159.225Y-96.95
X159.225Y-98.95
X161.91Y-74.75
X161.91Y-76.75
X161.91Y-78.75
X161.91Y-80.75
X161.91Y-82.75
X163.91Y-74.75
X163.91Y-76.75
X163.91Y-78.75
X163.91Y-80.75
X163.91Y-82.75
X165.91Y-74.725
X165.91Y-76.725
X165.91Y-78.725
X165.91Y-80.725
X165.91Y-82.725
M30
