G04 #@! TF.GenerationSoftware,KiCad,Pcbnew,8.0.4-8.0.4-0~ubuntu24.04.1*
G04 #@! TF.CreationDate,2024-09-03T20:49:10+07:00*
G04 #@! TF.ProjectId,OpenDrone_FC_F405_HW,4f70656e-4472-46f6-9e65-5f46435f4634,rev?*
G04 #@! TF.SameCoordinates,Original*
G04 #@! TF.FileFunction,Soldermask,Top*
G04 #@! TF.FilePolarity,Negative*
%FSLAX46Y46*%
G04 Gerber Fmt 4.6, Leading zero omitted, Abs format (unit mm)*
G04 Created by KiCad (PCBNEW 8.0.4-8.0.4-0~ubuntu24.04.1) date 2024-09-03 20:49:10*
%MOMM*%
%LPD*%
G01*
G04 APERTURE LIST*
G04 Aperture macros list*
%AMRoundRect*
0 Rectangle with rounded corners*
0 $1 Rounding radius*
0 $2 $3 $4 $5 $6 $7 $8 $9 X,Y pos of 4 corners*
0 Add a 4 corners polygon primitive as box body*
4,1,4,$2,$3,$4,$5,$6,$7,$8,$9,$2,$3,0*
0 Add four circle primitives for the rounded corners*
1,1,$1+$1,$2,$3*
1,1,$1+$1,$4,$5*
1,1,$1+$1,$6,$7*
1,1,$1+$1,$8,$9*
0 Add four rect primitives between the rounded corners*
20,1,$1+$1,$2,$3,$4,$5,0*
20,1,$1+$1,$4,$5,$6,$7,0*
20,1,$1+$1,$6,$7,$8,$9,0*
20,1,$1+$1,$8,$9,$2,$3,0*%
G04 Aperture macros list end*
%ADD10RoundRect,0.140000X0.170000X-0.140000X0.170000X0.140000X-0.170000X0.140000X-0.170000X-0.140000X0*%
%ADD11RoundRect,0.250000X1.100000X-0.325000X1.100000X0.325000X-1.100000X0.325000X-1.100000X-0.325000X0*%
%ADD12RoundRect,0.140000X-0.140000X-0.170000X0.140000X-0.170000X0.140000X0.170000X-0.140000X0.170000X0*%
%ADD13RoundRect,0.135000X-0.185000X0.135000X-0.185000X-0.135000X0.185000X-0.135000X0.185000X0.135000X0*%
%ADD14O,1.200000X1.200000*%
%ADD15RoundRect,0.135000X0.185000X-0.135000X0.185000X0.135000X-0.185000X0.135000X-0.185000X-0.135000X0*%
%ADD16RoundRect,0.140000X-0.170000X0.140000X-0.170000X-0.140000X0.170000X-0.140000X0.170000X0.140000X0*%
%ADD17RoundRect,0.062500X-0.350000X-0.062500X0.350000X-0.062500X0.350000X0.062500X-0.350000X0.062500X0*%
%ADD18RoundRect,0.062500X-0.062500X-0.350000X0.062500X-0.350000X0.062500X0.350000X-0.062500X0.350000X0*%
%ADD19RoundRect,0.075000X-0.700000X-0.075000X0.700000X-0.075000X0.700000X0.075000X-0.700000X0.075000X0*%
%ADD20RoundRect,0.075000X-0.075000X-0.700000X0.075000X-0.700000X0.075000X0.700000X-0.075000X0.700000X0*%
%ADD21RoundRect,0.147500X0.172500X-0.147500X0.172500X0.147500X-0.172500X0.147500X-0.172500X-0.147500X0*%
%ADD22RoundRect,0.250000X0.325000X1.100000X-0.325000X1.100000X-0.325000X-1.100000X0.325000X-1.100000X0*%
%ADD23RoundRect,0.140000X0.140000X0.170000X-0.140000X0.170000X-0.140000X-0.170000X0.140000X-0.170000X0*%
%ADD24RoundRect,0.135000X-0.135000X-0.185000X0.135000X-0.185000X0.135000X0.185000X-0.135000X0.185000X0*%
%ADD25RoundRect,0.062500X0.062500X-0.375000X0.062500X0.375000X-0.062500X0.375000X-0.062500X-0.375000X0*%
%ADD26RoundRect,0.062500X0.375000X-0.062500X0.375000X0.062500X-0.375000X0.062500X-0.375000X-0.062500X0*%
%ADD27R,2.150000X2.150000*%
%ADD28RoundRect,0.225000X0.475000X-0.225000X0.475000X0.225000X-0.475000X0.225000X-0.475000X-0.225000X0*%
%ADD29O,1.400000X0.900000*%
%ADD30RoundRect,0.225000X-0.225000X-0.475000X0.225000X-0.475000X0.225000X0.475000X-0.225000X0.475000X0*%
%ADD31O,0.900000X1.400000*%
%ADD32O,1.350000X1.350000*%
%ADD33R,1.200000X1.400000*%
%ADD34RoundRect,0.150000X0.150000X-0.825000X0.150000X0.825000X-0.150000X0.825000X-0.150000X-0.825000X0*%
%ADD35R,3.000000X2.290000*%
%ADD36RoundRect,0.250000X-0.650000X1.000000X-0.650000X-1.000000X0.650000X-1.000000X0.650000X1.000000X0*%
%ADD37R,4.500000X1.500000*%
%ADD38RoundRect,0.150000X-0.150000X0.825000X-0.150000X-0.825000X0.150000X-0.825000X0.150000X0.825000X0*%
%ADD39R,1.350000X1.350000*%
%ADD40RoundRect,0.135000X0.135000X0.185000X-0.135000X0.185000X-0.135000X-0.185000X0.135000X-0.185000X0*%
%ADD41RoundRect,0.250000X-0.325000X-1.100000X0.325000X-1.100000X0.325000X1.100000X-0.325000X1.100000X0*%
%ADD42RoundRect,0.250000X-1.000000X-0.650000X1.000000X-0.650000X1.000000X0.650000X-1.000000X0.650000X0*%
%ADD43R,0.350000X0.500000*%
G04 APERTURE END LIST*
D10*
X166750000Y-86780000D03*
X166750000Y-85820000D03*
D11*
X139825000Y-90875000D03*
X139825000Y-87925000D03*
D12*
X144480000Y-84290000D03*
X145440000Y-84290000D03*
D13*
X140600000Y-94010000D03*
X140600000Y-95030000D03*
D14*
X164735000Y-67287500D03*
X162485000Y-67287500D03*
D15*
X154555000Y-86650000D03*
X154555000Y-85630000D03*
D14*
X134502500Y-71415000D03*
X134502500Y-69165000D03*
D16*
X166750000Y-91450000D03*
X166750000Y-92410000D03*
D12*
X158870000Y-72375000D03*
X159830000Y-72375000D03*
D17*
X141547500Y-67830000D03*
X141547500Y-68330000D03*
X141547500Y-68830000D03*
X141547500Y-69330000D03*
D18*
X142260000Y-70042500D03*
X142760000Y-70042500D03*
X143260000Y-70042500D03*
X143760000Y-70042500D03*
D17*
X144472500Y-69330000D03*
X144472500Y-68830000D03*
X144472500Y-68330000D03*
X144472500Y-67830000D03*
D18*
X143760000Y-67117500D03*
X143260000Y-67117500D03*
X142760000Y-67117500D03*
X142260000Y-67117500D03*
D16*
X140600000Y-97800000D03*
X140600000Y-98760000D03*
X144725000Y-71270000D03*
X144725000Y-72230000D03*
D15*
X146900000Y-67910000D03*
X146900000Y-66890000D03*
D19*
X147200000Y-74325000D03*
X147200000Y-74825000D03*
X147200000Y-75325000D03*
X147200000Y-75825000D03*
X147200000Y-76325000D03*
X147200000Y-76825000D03*
X147200000Y-77325000D03*
X147200000Y-77825000D03*
X147200000Y-78325000D03*
X147200000Y-78825000D03*
X147200000Y-79325000D03*
X147200000Y-79825000D03*
X147200000Y-80325000D03*
X147200000Y-80825000D03*
X147200000Y-81325000D03*
X147200000Y-81825000D03*
D20*
X149125000Y-83750000D03*
X149625000Y-83750000D03*
X150125000Y-83750000D03*
X150625000Y-83750000D03*
X151125000Y-83750000D03*
X151625000Y-83750000D03*
X152125000Y-83750000D03*
X152625000Y-83750000D03*
X153125000Y-83750000D03*
X153625000Y-83750000D03*
X154125000Y-83750000D03*
X154625000Y-83750000D03*
X155125000Y-83750000D03*
X155625000Y-83750000D03*
X156125000Y-83750000D03*
X156625000Y-83750000D03*
D19*
X158550000Y-81825000D03*
X158550000Y-81325000D03*
X158550000Y-80825000D03*
X158550000Y-80325000D03*
X158550000Y-79825000D03*
X158550000Y-79325000D03*
X158550000Y-78825000D03*
X158550000Y-78325000D03*
X158550000Y-77825000D03*
X158550000Y-77325000D03*
X158550000Y-76825000D03*
X158550000Y-76325000D03*
X158550000Y-75825000D03*
X158550000Y-75325000D03*
X158550000Y-74825000D03*
X158550000Y-74325000D03*
D20*
X156625000Y-72400000D03*
X156125000Y-72400000D03*
X155625000Y-72400000D03*
X155125000Y-72400000D03*
X154625000Y-72400000D03*
X154125000Y-72400000D03*
X153625000Y-72400000D03*
X153125000Y-72400000D03*
X152625000Y-72400000D03*
X152125000Y-72400000D03*
X151625000Y-72400000D03*
X151125000Y-72400000D03*
X150625000Y-72400000D03*
X150125000Y-72400000D03*
X149625000Y-72400000D03*
X149125000Y-72400000D03*
D12*
X161560000Y-84845000D03*
X162520000Y-84845000D03*
D21*
X147850000Y-67885000D03*
X147850000Y-66915000D03*
D14*
X134517500Y-95195000D03*
X134517500Y-97445000D03*
D16*
X156450000Y-85620000D03*
X156450000Y-86580000D03*
D10*
X141820000Y-72280000D03*
X141820000Y-71320000D03*
D22*
X155350000Y-93775000D03*
X152400000Y-93775000D03*
D23*
X145430000Y-80380000D03*
X144470000Y-80380000D03*
D24*
X144440000Y-78500000D03*
X145460000Y-78500000D03*
D16*
X152640000Y-85642047D03*
X152640000Y-86602047D03*
D15*
X150825000Y-67910000D03*
X150825000Y-66890000D03*
D16*
X139030000Y-78080000D03*
X139030000Y-79040000D03*
D15*
X147894999Y-86640000D03*
X147894999Y-85620000D03*
D13*
X149794999Y-85620000D03*
X149794999Y-86640000D03*
X140600000Y-95870000D03*
X140600000Y-96890000D03*
D14*
X164595000Y-99287500D03*
X162345000Y-99287500D03*
D25*
X139730000Y-85020000D03*
X140230000Y-85020000D03*
X140730000Y-85020000D03*
X141230000Y-85020000D03*
X141730000Y-85020000D03*
X142230000Y-85020000D03*
D26*
X142917500Y-84332500D03*
X142917500Y-83832500D03*
X142917500Y-83332500D03*
X142917500Y-82832500D03*
X142917500Y-82332500D03*
X142917500Y-81832500D03*
D25*
X142230000Y-81145000D03*
X141730000Y-81145000D03*
X141230000Y-81145000D03*
X140730000Y-81145000D03*
X140230000Y-81145000D03*
X139730000Y-81145000D03*
D26*
X139042500Y-81832500D03*
X139042500Y-82332500D03*
X139042500Y-82832500D03*
X139042500Y-83332500D03*
X139042500Y-83832500D03*
X139042500Y-84332500D03*
D27*
X140980000Y-83082500D03*
D16*
X151700000Y-85642047D03*
X151700000Y-86602047D03*
D28*
X136950000Y-78680000D03*
D29*
X136950000Y-77430000D03*
X136950000Y-76180000D03*
X136950000Y-74930000D03*
D12*
X163430000Y-84825000D03*
X164390000Y-84825000D03*
D30*
X154180000Y-69760000D03*
D31*
X155430000Y-69760000D03*
X156680000Y-69760000D03*
X157930000Y-69760000D03*
X159180000Y-69760000D03*
D16*
X150732600Y-85660000D03*
X150732600Y-86620000D03*
D32*
X163910000Y-74750000D03*
X163910000Y-76750000D03*
X163910000Y-78750000D03*
X163910000Y-80750000D03*
X163910000Y-82750000D03*
D14*
X136355000Y-67302500D03*
X138605000Y-67302500D03*
D33*
X145060000Y-76050000D03*
X145060000Y-73850000D03*
X143360000Y-73850000D03*
X143360000Y-76050000D03*
D11*
X149450000Y-90900000D03*
X149450000Y-87950000D03*
D10*
X145675000Y-72225000D03*
X145675000Y-71265000D03*
D12*
X144445000Y-77550000D03*
X145405000Y-77550000D03*
D21*
X151775000Y-67885000D03*
X151775000Y-66915000D03*
D34*
X161645000Y-91595000D03*
X162915000Y-91595000D03*
X164185000Y-91595000D03*
X165455000Y-91595000D03*
X165455000Y-86645000D03*
X164185000Y-86645000D03*
X162915000Y-86645000D03*
X161645000Y-86645000D03*
D35*
X163550000Y-89120000D03*
D14*
X166482500Y-71445000D03*
X166482500Y-69195000D03*
D23*
X146080000Y-99680000D03*
X145120000Y-99680000D03*
X144200000Y-99680000D03*
X143240000Y-99680000D03*
D15*
X155505000Y-86650000D03*
X155505000Y-85630000D03*
D16*
X153600000Y-85652047D03*
X153600000Y-86612047D03*
D36*
X158975000Y-86675000D03*
X158975000Y-90675000D03*
D10*
X146650000Y-72225000D03*
X146650000Y-71265000D03*
D21*
X149825000Y-67867500D03*
X149825000Y-66897500D03*
D24*
X144450000Y-83310000D03*
X145470000Y-83310000D03*
D15*
X148850000Y-67910000D03*
X148850000Y-66890000D03*
D32*
X161910000Y-74750000D03*
X161910000Y-76750000D03*
X161910000Y-78750000D03*
X161910000Y-80750000D03*
X161910000Y-82750000D03*
D16*
X141910000Y-78090000D03*
X141910000Y-79050000D03*
D28*
X136970000Y-91590000D03*
D29*
X136970000Y-90340000D03*
X136970000Y-89090000D03*
X136970000Y-87840000D03*
X136970000Y-86590000D03*
X136970000Y-85340000D03*
X136970000Y-84090000D03*
X136970000Y-82840000D03*
D37*
X149101000Y-95799600D03*
X149101000Y-92802400D03*
D12*
X158870000Y-71425000D03*
X159830000Y-71425000D03*
D11*
X146225000Y-90875000D03*
X146225000Y-87925000D03*
D13*
X151775000Y-69060000D03*
X151775000Y-70080000D03*
D16*
X139990000Y-78100000D03*
X139990000Y-79060000D03*
X143725000Y-71295000D03*
X143725000Y-72255000D03*
X140940000Y-78100000D03*
X140940000Y-79060000D03*
D38*
X145705000Y-93005000D03*
X144435000Y-93005000D03*
X143165000Y-93005000D03*
X141895000Y-93005000D03*
X141895000Y-97955000D03*
X143165000Y-97955000D03*
X144435000Y-97955000D03*
X145705000Y-97955000D03*
D35*
X143800000Y-95480000D03*
D37*
X154549000Y-88250400D03*
X154549000Y-91247600D03*
D39*
X159225000Y-96950000D03*
D32*
X159225000Y-98950000D03*
X157225000Y-96950000D03*
X157225000Y-98950000D03*
X155225000Y-96950000D03*
X155225000Y-98950000D03*
D14*
X166477500Y-95205000D03*
X166477500Y-97455000D03*
D40*
X142360000Y-99680000D03*
X141340000Y-99680000D03*
D10*
X140900000Y-72290000D03*
X140900000Y-71330000D03*
D40*
X145470000Y-79440000D03*
X144450000Y-79440000D03*
D23*
X145430000Y-81325000D03*
X144470000Y-81325000D03*
D41*
X157000000Y-93800000D03*
X159950000Y-93800000D03*
D12*
X144470000Y-85250000D03*
X145430000Y-85250000D03*
D15*
X166750000Y-88700000D03*
X166750000Y-87680000D03*
D10*
X150825000Y-70055000D03*
X150825000Y-69095000D03*
D15*
X149825000Y-70085000D03*
X149825000Y-69065000D03*
D24*
X165280000Y-84805000D03*
X166300000Y-84805000D03*
D15*
X166740000Y-90580000D03*
X166740000Y-89560000D03*
D42*
X148125000Y-98475000D03*
X152125000Y-98475000D03*
D16*
X140600000Y-92200000D03*
X140600000Y-93160000D03*
D43*
X139410000Y-74290000D03*
X140060000Y-74290000D03*
X140710000Y-74290000D03*
X141360000Y-74290000D03*
X141360000Y-75890000D03*
X140710000Y-75890000D03*
X140060000Y-75890000D03*
X139410000Y-75890000D03*
D16*
X146925000Y-69095000D03*
X146925000Y-70055000D03*
D10*
X142760000Y-72270000D03*
X142760000Y-71310000D03*
D32*
X165910000Y-74725000D03*
X165910000Y-76725000D03*
X165910000Y-78725000D03*
X165910000Y-80725000D03*
X165910000Y-82725000D03*
D11*
X143025000Y-90875000D03*
X143025000Y-87925000D03*
D16*
X148850000Y-85637047D03*
X148850000Y-86597047D03*
D14*
X136375000Y-99317500D03*
X138625000Y-99317500D03*
M02*
